<?xml version="1.0" encoding="UTF-8"?>
<svg id="_イヤー_2" xmlns="http://www.w3.org/2000/svg"
     viewBox="0 0 642.4 439.91">
    <defs>
        <style>
            .cls-1{stroke:#231815;stroke-linecap:round;stroke-linejoin:round;stroke-width:10.24px;}.cls-1,.cls-2{fill:#231815;}.cls-3{fill:none;}.cls-4{clip-path:url(#clippath);}.cls-5{fill:#f8b62d;}.cls-6{fill:#fff;}.cls-7{fill:#9fc2e7;}
        </style>
        <clipPath id="clippath">
            <path class="cls-3"
                  d="M176.97,130.92c-22.36,2.84-51.9-1.21-83.8-10.71,108.39,88.75-30.48,116.24-78.32,145.51,82.05-3.09,164.77-.04,79.34,102.35,39.25-26.91,79.91-38.38,110.15-27.4,22.93,8.32,36.16,28.22,39.68,54.72,14.87-27.17,34.99-40.9,55.55-37.92,24.37,3.53,48.89,30.49,66,71.61,9.45-27.26,22.36-49.68,36.15-64.49,24.83-26.66,63.23-39.88,100.09-19.86,7.22,3.92,14.46,9.22,21.57,15.67,4.83-28.09,16.54-52.23,33.63-68.03,10.69-9.88,23.3-16.3,36.88-19.24-65.83-11.58-68.57-69.21,22.51-105.25-35.4-9.55-133.67-30.05-76.73-97.73-135.49,78.2-135.71-5.13-136.18-61.16-15.49,49.74-49.48,83.87-87.41,82.22-28.2-1.23-52.53-21.97-67.72-53.46,1.15,10.68,.97,20.49-.47,29.03-5.05,30.01-28.37,58.72-70.94,64.13Z"/>
        </clipPath>
    </defs>
    <g id="_イヤー_1-2">
        <g>
            <path class="cls-2"
                  d="M79.99,115.37C188.38,204.12,47.83,240.56,0,269.83c82.05-3.09,166.8,7.93,81.36,110.32,103.89-66.19,152.39-27.58,160.21,22.06,36.77-56.54,88.72-44.13,125.03,37.69,9.8-72.98,104.04-125.59,160.89-73.09,4.83-28.09,38.83-85.5,88.93-92.85-65.83-11.58-65.09-71.99,25.99-108.02-35.4-9.55-152.55-33.91-95.61-101.59C411.3,142.55,406.14,56.03,405.67,0c-31.95,99.51-133.31,93.31-159.05,29.42-6.35,86.81-89.04,98.58-166.64,85.95Z"/>
            <path class="cls-6"
                  d="M176.97,130.92c-22.36,2.84-51.9-1.21-83.8-10.71,108.39,88.75-30.48,116.24-78.32,145.51,82.05-3.09,164.77-.04,79.34,102.35,39.25-26.91,79.91-38.38,110.15-27.4,22.93,8.32,36.16,28.22,39.68,54.72,14.87-27.17,34.99-40.9,55.55-37.92,24.37,3.53,48.89,30.49,66,71.61,9.45-27.26,22.36-49.68,36.15-64.49,24.83-26.66,63.23-39.88,100.09-19.86,7.22,3.92,14.46,9.22,21.57,15.67,4.83-28.09,16.54-52.23,33.63-68.03,10.69-9.88,23.3-16.3,36.88-19.24-65.83-11.58-68.57-69.21,22.51-105.25-35.4-9.55-133.67-30.05-76.73-97.73-135.49,78.2-135.71-5.13-136.18-61.16-15.49,49.74-49.48,83.87-87.41,82.22-28.2-1.23-52.53-21.97-67.72-53.46,1.15,10.68,.97,20.49-.47,29.03-5.05,30.01-28.37,58.72-70.94,64.13Z"/>
            <g class="cls-4">
                <g>
                    <g>
                        <g>
                            <path class="cls-7"
                                  d="M11.35,255.37c-2.36,0-4.52-1.29-5.63-3.37-.8-1.5-.97-3.22-.47-4.85,.5-1.63,1.6-2.97,3.1-3.77,.94-.5,1.94-.75,2.99-.75,2.36,0,4.52,1.29,5.63,3.37,1.65,3.1,.48,6.97-2.62,8.62-.93,.5-1.94,.75-2.99,.75Z"/>
                            <path class="cls-6"
                                  d="M11.33,246.13c.84,0,1.94,.4,2.54,1.52,.74,1.4,.21,3.14-1.18,3.88-.42,.23-.87,.34-1.34,.34-.84,0-1.94-.4-2.54-1.52-.49-.91-.34-1.76-.21-2.19,.13-.42,.48-1.21,1.4-1.7,.42-.23,.87-.34,1.34-.34m0-7c-1.57,0-3.16,.37-4.64,1.16-4.81,2.57-6.63,8.54-4.06,13.35,1.78,3.33,5.19,5.23,8.72,5.23,1.57,0,3.16-.37,4.64-1.16,4.81-2.57,6.63-8.54,4.06-13.35-1.78-3.33-5.19-5.23-8.72-5.23h0Z"/>
                        </g>
                        <g>
                            <path class="cls-7"
                                  d="M52.75,233.29c-2.36,0-4.52-1.29-5.63-3.37-1.65-3.1-.48-6.97,2.62-8.62,.93-.5,1.94-.75,2.99-.75,2.36,0,4.52,1.29,5.63,3.37,.8,1.5,.97,3.22,.47,4.85-.5,1.63-1.6,2.97-3.1,3.77-.94,.5-1.94,.75-2.99,.75Z"/>
                            <path class="cls-6"
                                  d="M52.74,224.04c.84,0,1.94,.4,2.54,1.52,.74,1.4,.21,3.14-1.18,3.88-.42,.23-.87,.34-1.34,.34-.84,0-1.94-.4-2.54-1.52-.49-.91-.34-1.76-.21-2.19,.13-.42,.48-1.21,1.4-1.7,.42-.23,.87-.34,1.34-.34m0-7c-1.57,0-3.16,.37-4.64,1.16-4.81,2.57-6.63,8.54-4.06,13.35,1.78,3.33,5.19,5.23,8.72,5.23,1.57,0,3.16-.37,4.64-1.16,4.81-2.57,6.63-8.54,4.06-13.35-1.78-3.33-5.19-5.23-8.72-5.23h0Z"/>
                        </g>
                        <g>
                            <path class="cls-7"
                                  d="M94.16,211.2c-2.36,0-4.52-1.29-5.63-3.37-1.65-3.1-.48-6.97,2.62-8.62,.93-.5,1.94-.75,2.99-.75,2.36,0,4.52,1.29,5.63,3.37,.8,1.5,.97,3.22,.47,4.85-.5,1.63-1.6,2.97-3.1,3.77-.94,.5-1.94,.75-2.99,.75Z"/>
                            <path class="cls-6"
                                  d="M94.14,201.96c.84,0,1.94,.4,2.54,1.52,.74,1.4,.21,3.14-1.18,3.88-.42,.23-.87,.34-1.34,.34-.84,0-1.94-.4-2.54-1.52-.49-.91-.34-1.76-.21-2.19s.48-1.21,1.4-1.7c.42-.23,.87-.34,1.34-.34m0-7c-1.57,0-3.16,.37-4.64,1.16-4.81,2.57-6.63,8.54-4.06,13.35,1.78,3.33,5.19,5.23,8.72,5.23,1.57,0,3.16-.37,4.64-1.16,4.81-2.57,6.63-8.54,4.06-13.35-1.78-3.33-5.19-5.23-8.72-5.23h0Z"/>
                        </g>
                        <g>
                            <path class="cls-7"
                                  d="M135.56,189.11c-2.36,0-4.52-1.29-5.63-3.37-1.65-3.1-.48-6.97,2.62-8.62,.93-.5,1.94-.75,2.99-.75,2.36,0,4.52,1.29,5.63,3.37,.8,1.5,.97,3.22,.47,4.85-.5,1.63-1.6,2.97-3.1,3.77-.94,.5-1.94,.75-2.99,.75Z"/>
                            <path class="cls-6"
                                  d="M135.55,179.87c.84,0,1.94,.4,2.54,1.52,.74,1.4,.21,3.14-1.18,3.88-.42,.23-.87,.34-1.34,.34-.84,0-1.94-.4-2.54-1.52-.49-.91-.34-1.76-.21-2.19s.48-1.21,1.4-1.7c.42-.23,.87-.34,1.34-.34m0-7c-1.57,0-3.16,.37-4.64,1.16-4.81,2.57-6.63,8.54-4.06,13.35,1.78,3.33,5.19,5.23,8.72,5.23,1.57,0,3.16-.37,4.64-1.16,4.81-2.57,6.63-8.54,4.06-13.35-1.78-3.33-5.19-5.23-8.72-5.23h0Z"/>
                        </g>
                        <g>
                            <path class="cls-7"
                                  d="M176.97,167.03c-2.36,0-4.52-1.29-5.63-3.37-1.65-3.1-.48-6.97,2.62-8.62,.94-.5,1.94-.75,2.99-.75,2.36,0,4.52,1.29,5.63,3.37,.8,1.5,.97,3.22,.47,4.85-.5,1.63-1.6,2.97-3.1,3.77-.93,.5-1.94,.75-2.99,.75Z"/>
                            <path class="cls-6"
                                  d="M176.95,157.78c.84,0,1.94,.4,2.54,1.52,.74,1.4,.21,3.14-1.18,3.88-.42,.23-.87,.34-1.34,.34-.84,0-1.94-.4-2.54-1.52-.49-.91-.34-1.76-.21-2.19s.48-1.21,1.4-1.7c.42-.23,.87-.34,1.34-.34m0-7c-1.57,0-3.16,.37-4.64,1.16-4.81,2.57-6.63,8.54-4.06,13.35,1.78,3.33,5.19,5.23,8.72,5.23,1.57,0,3.16-.37,4.64-1.16,4.81-2.57,6.63-8.54,4.06-13.35-1.78-3.33-5.19-5.23-8.72-5.23h0Z"/>
                        </g>
                        <g>
                            <path class="cls-7"
                                  d="M218.37,144.94c-2.36,0-4.52-1.29-5.63-3.37-1.65-3.1-.48-6.97,2.62-8.62,.94-.5,1.94-.75,2.99-.75,2.36,0,4.52,1.29,5.63,3.37,.8,1.5,.97,3.22,.47,4.85-.5,1.63-1.6,2.97-3.1,3.77-.93,.5-1.94,.75-2.99,.75Z"/>
                            <path class="cls-6"
                                  d="M218.35,135.7c.84,0,1.94,.4,2.54,1.52,.74,1.4,.21,3.14-1.18,3.88-.42,.23-.87,.34-1.34,.34-.84,0-1.94-.4-2.54-1.52-.49-.91-.34-1.76-.21-2.19s.48-1.21,1.4-1.7c.42-.23,.87-.34,1.34-.34m0-7c-1.57,0-3.16,.37-4.64,1.16-4.81,2.57-6.63,8.54-4.06,13.35,1.78,3.33,5.19,5.23,8.72,5.23,1.57,0,3.16-.37,4.64-1.16,4.81-2.57,6.63-8.54,4.06-13.35-1.78-3.33-5.19-5.23-8.72-5.23h0Z"/>
                        </g>
                        <g>
                            <path class="cls-7"
                                  d="M259.77,122.86c-2.36,0-4.52-1.29-5.63-3.37-1.65-3.1-.48-6.97,2.62-8.62,.94-.5,1.94-.75,2.99-.75,2.36,0,4.52,1.29,5.63,3.37,.8,1.5,.97,3.22,.47,4.85-.5,1.63-1.6,2.97-3.1,3.77-.93,.5-1.94,.75-2.99,.75Z"/>
                            <path class="cls-6"
                                  d="M259.76,113.61c.84,0,1.94,.4,2.54,1.52,.74,1.4,.21,3.14-1.18,3.88-.42,.23-.87,.34-1.34,.34-.84,0-1.94-.4-2.54-1.52-.74-1.4-.21-3.14,1.18-3.88,.42-.23,.87-.34,1.34-.34m0-7c-1.57,0-3.16,.37-4.64,1.16-4.81,2.57-6.63,8.54-4.06,13.35,1.78,3.33,5.19,5.23,8.72,5.23,1.57,0,3.16-.37,4.64-1.16,4.81-2.57,6.63-8.54,4.06-13.35-1.78-3.33-5.19-5.23-8.72-5.23h0Z"/>
                        </g>
                        <g>
                            <path class="cls-7"
                                  d="M301.18,100.77c-2.36,0-4.52-1.29-5.63-3.37-1.65-3.1-.48-6.97,2.62-8.62,.94-.5,1.94-.75,2.99-.75,2.36,0,4.52,1.29,5.63,3.37,1.65,3.1,.48,6.97-2.62,8.62-.93,.5-1.94,.75-2.99,.75Z"/>
                            <path class="cls-6"
                                  d="M301.16,91.52c.84,0,1.94,.4,2.54,1.52,.74,1.4,.21,3.14-1.18,3.88-.42,.23-.87,.34-1.34,.34-.84,0-1.94-.4-2.54-1.52-.74-1.4-.21-3.14,1.18-3.88,.42-.23,.87-.34,1.34-.34m0-7c-1.57,0-3.16,.37-4.64,1.16-4.81,2.57-6.63,8.54-4.06,13.35,1.78,3.33,5.19,5.23,8.72,5.23,1.57,0,3.16-.37,4.64-1.16,4.81-2.57,6.63-8.54,4.06-13.35-1.78-3.33-5.19-5.23-8.72-5.23h0Z"/>
                        </g>
                        <g>
                            <path class="cls-7"
                                  d="M7.69,298.86c-2.55,0-4.87-1.39-6.07-3.64-1.78-3.34-.51-7.51,2.83-9.29,1.01-.54,2.09-.81,3.23-.81,2.55,0,4.87,1.39,6.07,3.64,1.78,3.34,.51,7.51-2.83,9.29-1.01,.54-2.09,.81-3.23,.81Z"/>
                            <path class="cls-6"
                                  d="M7.67,288.11c1.44,0,2.75,.79,3.42,2.05,1,1.88,.29,4.23-1.59,5.24-.57,.3-1.18,.46-1.81,.46-1.44,0-2.75-.79-3.42-2.05-.49-.91-.59-1.96-.29-2.95,.3-.99,.97-1.8,1.88-2.29,.57-.3,1.18-.46,1.81-.46m0-6c-1.57,0-3.16,.37-4.64,1.16-4.81,2.57-6.63,8.54-4.06,13.35,1.78,3.33,5.19,5.23,8.72,5.23,1.57,0,3.16-.37,4.64-1.16,4.81-2.57,6.63-8.54,4.06-13.35-1.78-3.33-5.19-5.23-8.72-5.23h0Z"/>
                        </g>
                        <g>
                            <path class="cls-7"
                                  d="M49.09,276.77c-2.55,0-4.87-1.39-6.07-3.64-.86-1.62-1.05-3.48-.51-5.23s1.72-3.2,3.34-4.06c1.01-.54,2.09-.81,3.22-.81,2.55,0,4.87,1.39,6.07,3.64,.86,1.62,1.05,3.48,.51,5.23s-1.72,3.2-3.34,4.06c-1.01,.54-2.09,.81-3.22,.81Z"/>
                            <path class="cls-6"
                                  d="M49.07,266.02c1.44,0,2.75,.79,3.42,2.05,1,1.88,.29,4.23-1.59,5.24-.57,.3-1.18,.46-1.81,.46-1.44,0-2.75-.79-3.42-2.05-.49-.91-.59-1.96-.29-2.95,.3-.99,.97-1.8,1.88-2.29,.57-.3,1.18-.46,1.81-.46m0-6c-1.57,0-3.16,.37-4.64,1.16-4.81,2.57-6.63,8.54-4.06,13.35,1.78,3.33,5.19,5.23,8.72,5.23,1.57,0,3.16-.37,4.64-1.16,4.81-2.57,6.63-8.54,4.06-13.35-1.78-3.33-5.19-5.23-8.72-5.23h0Z"/>
                        </g>
                        <g>
                            <path class="cls-7"
                                  d="M90.49,254.68c-2.55,0-4.87-1.39-6.07-3.64-1.78-3.34-.51-7.51,2.83-9.3,1.01-.54,2.09-.81,3.22-.81,2.55,0,4.87,1.39,6.07,3.64,.86,1.62,1.05,3.48,.51,5.23s-1.72,3.2-3.34,4.06c-1.01,.54-2.09,.81-3.23,.81Z"/>
                            <path class="cls-6"
                                  d="M90.48,243.94c1.44,0,2.75,.79,3.42,2.05,1,1.88,.29,4.23-1.59,5.24-.57,.3-1.18,.46-1.81,.46-1.44,0-2.75-.79-3.42-2.05-.49-.91-.59-1.96-.29-2.95,.3-.99,.97-1.8,1.88-2.29,.57-.3,1.18-.46,1.81-.46m0-6c-1.57,0-3.16,.37-4.64,1.16-4.81,2.57-6.63,8.54-4.06,13.35,1.78,3.33,5.19,5.23,8.72,5.23,1.57,0,3.16-.37,4.64-1.16,4.81-2.57,6.63-8.54,4.06-13.35-1.78-3.33-5.19-5.23-8.72-5.23h0Z"/>
                        </g>
                        <g>
                            <path class="cls-7"
                                  d="M131.9,232.6c-2.55,0-4.87-1.39-6.07-3.64-.86-1.62-1.05-3.48-.51-5.23s1.72-3.2,3.34-4.06c1.01-.54,2.09-.81,3.23-.81,2.55,0,4.87,1.39,6.07,3.64,1.78,3.34,.51,7.51-2.83,9.3-1.01,.54-2.09,.81-3.22,.81Z"/>
                            <path class="cls-6"
                                  d="M131.88,221.85c1.44,0,2.75,.79,3.42,2.05,1,1.88,.29,4.23-1.59,5.24-.57,.3-1.18,.46-1.81,.46-1.44,0-2.75-.79-3.42-2.05-1-1.88-.29-4.23,1.59-5.24,.57-.3,1.18-.46,1.81-.46m0-6c-1.57,0-3.16,.37-4.64,1.16-4.81,2.57-6.63,8.54-4.06,13.35,1.78,3.33,5.19,5.23,8.72,5.23,1.57,0,3.16-.37,4.64-1.16,4.81-2.57,6.63-8.54,4.06-13.35-1.78-3.33-5.19-5.23-8.72-5.23h0Z"/>
                        </g>
                        <g>
                            <path class="cls-7"
                                  d="M173.3,210.51c-2.55,0-4.87-1.39-6.07-3.64-.86-1.62-1.05-3.48-.51-5.23s1.72-3.2,3.34-4.06c1.01-.54,2.09-.81,3.23-.81,2.55,0,4.87,1.39,6.07,3.64,1.78,3.34,.51,7.51-2.83,9.3-1.01,.54-2.09,.81-3.23,.81Z"/>
                            <path class="cls-6"
                                  d="M173.28,199.76c1.44,0,2.75,.79,3.42,2.05,1,1.88,.29,4.23-1.59,5.24-.57,.3-1.18,.46-1.81,.46-1.44,0-2.75-.79-3.42-2.05-1-1.88-.29-4.23,1.59-5.24,.57-.3,1.18-.46,1.81-.46m0-6c-1.57,0-3.16,.37-4.64,1.16-4.81,2.57-6.63,8.54-4.06,13.35,1.78,3.33,5.19,5.23,8.72,5.23,1.57,0,3.16-.37,4.64-1.16,4.81-2.57,6.63-8.54,4.06-13.35-1.78-3.33-5.19-5.23-8.72-5.23h0Z"/>
                        </g>
                        <g>
                            <path class="cls-7"
                                  d="M214.7,188.42c-2.55,0-4.87-1.39-6.07-3.64-.86-1.62-1.05-3.48-.51-5.23,.53-1.76,1.72-3.2,3.34-4.06,1.01-.54,2.09-.81,3.23-.81,2.55,0,4.87,1.39,6.07,3.64,.86,1.62,1.05,3.48,.51,5.23-.53,1.76-1.72,3.2-3.34,4.06-1.01,.54-2.09,.81-3.23,.81Z"/>
                            <path class="cls-6"
                                  d="M214.69,177.68c1.44,0,2.75,.79,3.42,2.05,.49,.91,.59,1.96,.29,2.95-.3,.99-.97,1.8-1.88,2.29-.57,.3-1.18,.46-1.81,.46-1.44,0-2.75-.79-3.42-2.05-1-1.88-.29-4.23,1.59-5.24,.57-.3,1.18-.46,1.81-.46m0-6c-1.57,0-3.16,.37-4.64,1.16-4.81,2.57-6.63,8.54-4.06,13.35,1.78,3.33,5.19,5.23,8.72,5.23,1.57,0,3.16-.37,4.64-1.16,4.81-2.57,6.63-8.54,4.06-13.35-1.78-3.33-5.19-5.23-8.72-5.23h0Z"/>
                        </g>
                        <g>
                            <path class="cls-7"
                                  d="M256.11,166.34c-2.55,0-4.87-1.39-6.07-3.64-.86-1.62-1.05-3.48-.51-5.23,.53-1.76,1.72-3.2,3.34-4.06,1.01-.54,2.09-.81,3.23-.81,2.55,0,4.87,1.39,6.07,3.64,.86,1.62,1.05,3.48,.51,5.23-.53,1.76-1.72,3.2-3.34,4.06-1.01,.54-2.09,.81-3.23,.81Z"/>
                            <path class="cls-6"
                                  d="M256.09,155.59c1.44,0,2.75,.79,3.42,2.05,1,1.88,.29,4.23-1.59,5.24-.57,.3-1.18,.46-1.81,.46-1.44,0-2.75-.79-3.42-2.05-1-1.88-.29-4.23,1.59-5.24,.57-.3,1.18-.46,1.81-.46m0-6c-1.57,0-3.16,.37-4.64,1.16-4.81,2.57-6.63,8.54-4.06,13.35,1.78,3.33,5.19,5.23,8.72,5.23,1.57,0,3.16-.37,4.64-1.16,4.81-2.57,6.63-8.54,4.06-13.35-1.78-3.33-5.19-5.23-8.72-5.23h0Z"/>
                        </g>
                        <g>
                            <path class="cls-7"
                                  d="M297.51,144.25c-2.55,0-4.87-1.39-6.07-3.64-.86-1.62-1.05-3.48-.51-5.23,.53-1.76,1.72-3.2,3.34-4.06,1.01-.54,2.09-.81,3.23-.81,2.55,0,4.87,1.39,6.07,3.64,.86,1.62,1.05,3.48,.51,5.23-.53,1.76-1.72,3.2-3.34,4.06-1.01,.54-2.09,.81-3.23,.81Z"/>
                            <path class="cls-6"
                                  d="M297.5,133.51c1.44,0,2.75,.79,3.42,2.05,1,1.88,.29,4.23-1.59,5.24-.57,.3-1.18,.46-1.81,.46-1.44,0-2.75-.79-3.42-2.05-1-1.88-.29-4.23,1.59-5.24,.57-.3,1.18-.46,1.81-.46m0-6c-1.57,0-3.16,.37-4.64,1.16-4.81,2.57-6.63,8.54-4.06,13.35,1.78,3.33,5.19,5.23,8.72,5.23,1.57,0,3.16-.37,4.64-1.16,4.81-2.57,6.63-8.54,4.06-13.35-1.78-3.33-5.19-5.23-8.72-5.23h0Z"/>
                        </g>
                        <g>
                            <path class="cls-7"
                                  d="M4.6,343.42c-2.73,0-5.23-1.5-6.51-3.9-1.91-3.58-.55-8.06,3.03-9.97,1.08-.58,2.25-.87,3.46-.87,2.73,0,5.23,1.5,6.51,3.9,.93,1.74,1.12,3.73,.55,5.61-.57,1.88-1.85,3.43-3.58,4.36-1.08,.58-2.25,.87-3.46,.87Z"/>
                            <path class="cls-6"
                                  d="M4.58,331.18c1.81,0,3.46,.99,4.3,2.58,.61,1.15,.74,2.47,.36,3.71-.38,1.24-1.22,2.27-2.37,2.88-.72,.38-1.48,.58-2.28,.58-1.81,0-3.46-.99-4.31-2.58-1.26-2.37-.36-5.33,2-6.59,.72-.38,1.48-.58,2.28-.58m0-5c-1.57,0-3.16,.37-4.64,1.16-4.81,2.57-6.63,8.54-4.06,13.35,1.78,3.33,5.19,5.23,8.72,5.23,1.57,0,3.16-.37,4.64-1.16,4.81-2.57,6.63-8.54,4.06-13.35-1.78-3.33-5.19-5.23-8.72-5.23h0Z"/>
                        </g>
                        <g>
                            <path class="cls-7"
                                  d="M46.01,321.34c-2.73,0-5.23-1.5-6.51-3.9-.93-1.74-1.12-3.73-.55-5.61s1.85-3.43,3.58-4.36c1.08-.58,2.25-.87,3.46-.87,2.73,0,5.23,1.5,6.51,3.9,1.91,3.59,.55,8.06-3.03,9.97-1.08,.58-2.25,.87-3.46,.87Z"/>
                            <path class="cls-6"
                                  d="M45.99,309.09c1.81,0,3.46,.99,4.3,2.58,.61,1.15,.74,2.47,.36,3.71-.38,1.24-1.22,2.27-2.37,2.88-.72,.38-1.48,.58-2.28,.58-1.81,0-3.46-.99-4.31-2.58-.61-1.15-.74-2.47-.36-3.71,.38-1.24,1.22-2.27,2.37-2.88,.72-.38,1.48-.58,2.28-.58m0-5c-1.57,0-3.16,.37-4.64,1.16-4.81,2.57-6.63,8.54-4.06,13.35,1.78,3.33,5.19,5.23,8.72,5.23,1.57,0,3.16-.37,4.64-1.16,4.81-2.57,6.63-8.54,4.06-13.35-1.78-3.33-5.19-5.23-8.72-5.23h0Z"/>
                        </g>
                        <g>
                            <path class="cls-7"
                                  d="M87.41,299.25c-2.73,0-5.23-1.5-6.51-3.9-.93-1.74-1.12-3.73-.55-5.61s1.85-3.43,3.58-4.36c1.08-.58,2.25-.87,3.46-.87,2.73,0,5.23,1.5,6.51,3.9,.93,1.74,1.12,3.73,.55,5.61-.57,1.88-1.85,3.43-3.58,4.36-1.08,.58-2.25,.87-3.46,.87Z"/>
                            <path class="cls-6"
                                  d="M87.39,287.01c1.81,0,3.46,.99,4.3,2.58,.61,1.15,.74,2.47,.36,3.71-.38,1.24-1.22,2.27-2.37,2.88-.72,.38-1.48,.58-2.28,.58-1.81,0-3.46-.99-4.31-2.58-.61-1.15-.74-2.47-.36-3.71,.38-1.24,1.22-2.27,2.37-2.88,.72-.38,1.48-.58,2.28-.58m0-5c-1.57,0-3.16,.37-4.64,1.16-4.81,2.57-6.63,8.54-4.06,13.35,1.78,3.33,5.19,5.23,8.72,5.23,1.57,0,3.16-.37,4.64-1.16,4.81-2.57,6.63-8.54,4.06-13.35-1.78-3.33-5.19-5.23-8.72-5.23h0Z"/>
                        </g>
                        <g>
                            <path class="cls-7"
                                  d="M128.81,277.16c-2.73,0-5.23-1.5-6.51-3.9-1.91-3.59-.55-8.06,3.03-9.97,1.08-.58,2.25-.87,3.46-.87,2.73,0,5.23,1.5,6.51,3.9,1.91,3.59,.55,8.06-3.03,9.97-1.08,.58-2.25,.87-3.46,.87Z"/>
                            <path class="cls-6"
                                  d="M128.8,264.92c1.81,0,3.46,.99,4.3,2.58,1.26,2.37,.36,5.33-2,6.59-.72,.38-1.48,.58-2.28,.58-1.81,0-3.46-.99-4.31-2.58-1.26-2.37-.36-5.33,2.01-6.59,.72-.38,1.48-.58,2.28-.58m0-5c-1.57,0-3.16,.37-4.64,1.16-4.81,2.57-6.63,8.54-4.06,13.35,1.78,3.33,5.19,5.23,8.72,5.23,1.57,0,3.16-.37,4.64-1.16,4.81-2.57,6.63-8.54,4.06-13.35-1.78-3.33-5.19-5.23-8.72-5.23h0Z"/>
                        </g>
                        <g>
                            <path class="cls-7"
                                  d="M170.22,255.08c-2.73,0-5.23-1.5-6.51-3.9-.93-1.74-1.12-3.73-.55-5.61s1.85-3.43,3.58-4.36c1.08-.58,2.25-.87,3.46-.87,2.73,0,5.23,1.5,6.51,3.9,.93,1.74,1.12,3.73,.55,5.61-.57,1.88-1.85,3.43-3.58,4.36-1.08,.58-2.25,.87-3.46,.87Z"/>
                            <path class="cls-6"
                                  d="M170.2,242.83c1.81,0,3.46,.99,4.3,2.58,.61,1.15,.74,2.47,.36,3.71-.38,1.24-1.22,2.27-2.37,2.88-.72,.38-1.48,.58-2.28,.58-1.81,0-3.46-.99-4.31-2.58-.61-1.15-.74-2.47-.36-3.71,.38-1.24,1.22-2.27,2.37-2.88,.72-.38,1.48-.58,2.28-.58m0-5c-1.57,0-3.16,.37-4.64,1.16-4.81,2.57-6.63,8.54-4.06,13.35,1.78,3.33,5.19,5.23,8.72,5.23,1.57,0,3.16-.37,4.64-1.16,4.81-2.57,6.63-8.54,4.06-13.35-1.78-3.33-5.19-5.23-8.72-5.23h0Z"/>
                        </g>
                        <g>
                            <path class="cls-7"
                                  d="M211.62,232.99c-2.73,0-5.23-1.5-6.51-3.9-1.91-3.59-.55-8.06,3.03-9.97,1.08-.58,2.25-.87,3.46-.87,2.73,0,5.23,1.5,6.51,3.9,.93,1.74,1.12,3.73,.55,5.61-.57,1.88-1.85,3.43-3.58,4.36-1.08,.58-2.25,.87-3.46,.87Z"/>
                            <path class="cls-6"
                                  d="M211.6,220.75c1.81,0,3.46,.99,4.3,2.58,1.26,2.37,.36,5.33-2.01,6.59-.72,.38-1.48,.58-2.28,.58-1.81,0-3.46-.99-4.31-2.58-1.26-2.37-.36-5.33,2-6.59,.72-.38,1.48-.58,2.28-.58m0-5c-1.57,0-3.16,.37-4.64,1.16-4.81,2.57-6.63,8.54-4.06,13.35,1.78,3.33,5.19,5.23,8.72,5.23,1.57,0,3.16-.37,4.64-1.16,4.81-2.57,6.63-8.54,4.06-13.35-1.78-3.33-5.19-5.23-8.72-5.23h0Z"/>
                        </g>
                        <g>
                            <path class="cls-7"
                                  d="M253.02,210.91c-2.73,0-5.23-1.5-6.51-3.9-1.91-3.59-.55-8.06,3.03-9.97,1.08-.58,2.25-.87,3.46-.87,2.73,0,5.23,1.5,6.51,3.9,1.91,3.59,.55,8.06-3.03,9.97-1.08,.58-2.25,.87-3.46,.87Z"/>
                            <path class="cls-6"
                                  d="M253.01,198.66c1.81,0,3.46,.99,4.3,2.58,.61,1.15,.74,2.47,.36,3.71-.38,1.24-1.22,2.27-2.37,2.88-.72,.38-1.48,.58-2.28,.58-1.81,0-3.46-.99-4.31-2.58-.61-1.15-.74-2.47-.36-3.71,.38-1.24,1.22-2.27,2.37-2.88,.72-.38,1.48-.58,2.28-.58m0-5c-1.57,0-3.16,.37-4.64,1.16-4.81,2.57-6.63,8.54-4.06,13.35,1.78,3.33,5.19,5.23,8.72,5.23,1.57,0,3.16-.37,4.64-1.16,4.81-2.57,6.63-8.54,4.06-13.35-1.78-3.33-5.19-5.23-8.72-5.23h0Z"/>
                        </g>
                        <g>
                            <path class="cls-7"
                                  d="M294.43,188.82c-2.73,0-5.23-1.5-6.51-3.9-1.91-3.59-.55-8.06,3.03-9.97,1.08-.58,2.25-.87,3.46-.87,2.73,0,5.23,1.5,6.51,3.9,1.91,3.59,.55,8.06-3.03,9.97-1.08,.58-2.25,.87-3.46,.87Z"/>
                            <path class="cls-6"
                                  d="M294.41,176.57c1.81,0,3.46,.99,4.3,2.58,1.26,2.37,.36,5.33-2,6.59-.72,.38-1.48,.58-2.28,.58-1.81,0-3.46-.99-4.31-2.58-1.26-2.37-.36-5.33,2.01-6.59,.72-.38,1.48-.58,2.28-.58m0-5c-1.57,0-3.16,.37-4.64,1.16-4.81,2.57-6.63,8.54-4.06,13.35,1.78,3.33,5.19,5.23,8.72,5.23,1.57,0,3.16-.37,4.64-1.16,4.81-2.57,6.63-8.54,4.06-13.35-1.78-3.33-5.19-5.23-8.72-5.23h0Z"/>
                        </g>
                        <g>
                            <path class="cls-7"
                                  d="M335.83,166.73c-2.73,0-5.23-1.5-6.51-3.9-.93-1.74-1.12-3.73-.55-5.61,.57-1.88,1.85-3.43,3.58-4.36,1.08-.58,2.25-.87,3.46-.87,2.73,0,5.23,1.5,6.51,3.9,1.91,3.59,.55,8.06-3.03,9.97-1.08,.58-2.25,.87-3.46,.87Z"/>
                            <path class="cls-6"
                                  d="M335.82,154.49c1.81,0,3.46,.99,4.3,2.58,.61,1.15,.74,2.47,.36,3.71-.38,1.24-1.22,2.27-2.37,2.88-.72,.38-1.48,.58-2.28,.58-1.81,0-3.46-.99-4.31-2.58-1.26-2.37-.36-5.33,2-6.59,.72-.38,1.48-.58,2.28-.58m0-5c-1.57,0-3.16,.37-4.64,1.16-4.81,2.57-6.63,8.54-4.06,13.35,1.78,3.33,5.19,5.23,8.72,5.23,1.57,0,3.16-.37,4.64-1.16,4.81-2.57,6.63-8.54,4.06-13.35-1.78-3.33-5.19-5.23-8.72-5.23h0Z"/>
                        </g>
                        <g>
                            <path class="cls-7"
                                  d="M.94,386.91c-2.92,0-5.58-1.6-6.95-4.17-.99-1.85-1.2-3.98-.59-6,.61-2.01,1.97-3.66,3.83-4.65,1.14-.61,2.42-.93,3.7-.93,2.92,0,5.58,1.6,6.95,4.17,.99,1.85,1.2,3.98,.59,6-.61,2.01-1.97,3.66-3.83,4.65-1.14,.61-2.42,.93-3.7,.93Z"/>
                            <path class="cls-6"
                                  d="M.92,373.16c2.18,0,4.16,1.19,5.19,3.11,.74,1.38,.89,2.97,.44,4.47-.46,1.5-1.47,2.73-2.85,3.47-.86,.46-1.79,.69-2.75,.69-2.18,0-4.17-1.19-5.19-3.11-.74-1.38-.89-2.97-.44-4.47,.46-1.5,1.47-2.73,2.85-3.47,.86-.46,1.79-.69,2.76-.69m0-4c-1.57,0-3.16,.37-4.64,1.16-4.81,2.57-6.63,8.54-4.06,13.35,1.78,3.33,5.19,5.23,8.72,5.23,1.57,0,3.16-.37,4.64-1.16,4.81-2.57,6.63-8.54,4.06-13.35-1.78-3.33-5.19-5.23-8.72-5.23H.92Z"/>
                        </g>
                        <g>
                            <path class="cls-7"
                                  d="M42.34,364.82c-2.92,0-5.58-1.6-6.95-4.17-2.04-3.83-.59-8.61,3.24-10.65,1.14-.61,2.42-.93,3.7-.93,2.92,0,5.58,1.6,6.95,4.17,2.04,3.83,.59,8.61-3.24,10.65-1.14,.61-2.42,.93-3.7,.93Z"/>
                            <path class="cls-6"
                                  d="M42.32,351.07c2.18,0,4.16,1.19,5.19,3.11,.74,1.38,.89,2.97,.44,4.47-.46,1.5-1.47,2.73-2.85,3.47-.86,.46-1.79,.69-2.75,.69-2.18,0-4.17-1.19-5.19-3.11-1.52-2.86-.44-6.42,2.42-7.94,.86-.46,1.79-.69,2.76-.69m0-4c-1.57,0-3.16,.37-4.64,1.16-4.81,2.57-6.63,8.54-4.06,13.35,1.78,3.33,5.19,5.23,8.72,5.23,1.57,0,3.16-.37,4.64-1.16,4.81-2.57,6.63-8.54,4.06-13.35-1.78-3.33-5.19-5.23-8.72-5.23h0Z"/>
                        </g>
                        <g>
                            <path class="cls-7"
                                  d="M83.74,342.73c-2.92,0-5.58-1.6-6.95-4.17-.99-1.85-1.2-3.98-.59-6,.61-2.01,1.97-3.66,3.83-4.65,1.14-.61,2.42-.93,3.7-.93,2.92,0,5.58,1.6,6.95,4.17,.99,1.85,1.2,3.98,.59,6-.61,2.01-1.97,3.66-3.83,4.65-1.14,.61-2.42,.93-3.7,.93Z"/>
                            <path class="cls-6"
                                  d="M83.73,328.99c2.18,0,4.16,1.19,5.19,3.11,.74,1.38,.89,2.97,.44,4.47-.46,1.5-1.47,2.73-2.85,3.47-.86,.46-1.79,.69-2.75,.69-2.18,0-4.17-1.19-5.19-3.11-.74-1.38-.89-2.97-.44-4.47,.46-1.5,1.47-2.73,2.85-3.47,.86-.46,1.79-.69,2.76-.69m0-4c-1.57,0-3.16,.37-4.64,1.16-4.81,2.57-6.63,8.54-4.06,13.35,1.78,3.33,5.19,5.23,8.72,5.23,1.57,0,3.16-.37,4.64-1.16,4.81-2.57,6.63-8.54,4.06-13.35-1.78-3.33-5.19-5.23-8.72-5.23h0Z"/>
                        </g>
                        <g>
                            <path class="cls-7"
                                  d="M125.15,320.65c-2.92,0-5.58-1.6-6.95-4.17-2.04-3.83-.59-8.61,3.24-10.65,1.14-.61,2.42-.93,3.7-.93,2.92,0,5.58,1.6,6.95,4.17,.99,1.85,1.2,3.98,.59,6-.61,2.01-1.97,3.66-3.83,4.65-1.14,.61-2.42,.93-3.7,.93Z"/>
                            <path class="cls-6"
                                  d="M125.13,306.9c2.18,0,4.16,1.19,5.19,3.11,.74,1.38,.89,2.97,.44,4.47-.46,1.5-1.47,2.73-2.85,3.47-.86,.46-1.79,.69-2.75,.69-2.18,0-4.17-1.19-5.19-3.11-.74-1.38-.89-2.97-.44-4.47,.46-1.5,1.47-2.73,2.85-3.47,.86-.46,1.79-.69,2.76-.69m0-4c-1.57,0-3.16,.37-4.64,1.16-4.81,2.57-6.63,8.54-4.06,13.35,1.78,3.33,5.19,5.23,8.72,5.23,1.57,0,3.16-.37,4.64-1.16,4.81-2.57,6.63-8.54,4.06-13.35-1.78-3.33-5.19-5.23-8.72-5.23h0Z"/>
                        </g>
                        <g>
                            <path class="cls-7"
                                  d="M166.55,298.56c-2.92,0-5.58-1.6-6.95-4.17-.99-1.85-1.2-3.98-.59-6,.61-2.01,1.97-3.66,3.83-4.65,1.14-.61,2.42-.93,3.7-.93,2.92,0,5.58,1.6,6.95,4.17,2.04,3.83,.59,8.61-3.24,10.65-1.14,.61-2.42,.93-3.7,.93Z"/>
                            <path class="cls-6"
                                  d="M166.54,284.81c2.18,0,4.16,1.19,5.19,3.11,1.52,2.86,.44,6.42-2.42,7.94-.86,.46-1.79,.69-2.75,.69-2.18,0-4.17-1.19-5.19-3.11-1.52-2.86-.44-6.42,2.42-7.94,.86-.46,1.79-.69,2.76-.69m0-4c-1.57,0-3.16,.37-4.64,1.16-4.81,2.57-6.63,8.54-4.06,13.35,1.78,3.33,5.19,5.23,8.72,5.23,1.57,0,3.16-.37,4.64-1.16,4.81-2.57,6.63-8.54,4.06-13.35-1.78-3.33-5.19-5.23-8.72-5.23h0Z"/>
                        </g>
                        <g>
                            <path class="cls-7"
                                  d="M207.95,276.47c-2.92,0-5.58-1.6-6.95-4.17-2.04-3.83-.59-8.61,3.24-10.65,1.14-.61,2.42-.93,3.7-.93,2.92,0,5.58,1.6,6.95,4.17,.99,1.85,1.2,3.98,.59,6-.61,2.01-1.97,3.66-3.83,4.65-1.14,.61-2.42,.93-3.7,.93Z"/>
                            <path class="cls-6"
                                  d="M207.94,262.73c2.18,0,4.16,1.19,5.19,3.11,.74,1.38,.89,2.97,.44,4.47-.46,1.5-1.47,2.73-2.85,3.47-.86,.46-1.79,.69-2.75,.69-2.18,0-4.17-1.19-5.19-3.11-1.52-2.86-.44-6.42,2.42-7.94,.86-.46,1.79-.69,2.76-.69m0-4c-1.57,0-3.16,.37-4.64,1.16-4.81,2.57-6.63,8.54-4.06,13.35,1.78,3.33,5.19,5.23,8.72,5.23,1.57,0,3.16-.37,4.64-1.16,4.81-2.57,6.63-8.54,4.06-13.35-1.78-3.33-5.19-5.23-8.72-5.23h0Z"/>
                        </g>
                        <g>
                            <path class="cls-7"
                                  d="M249.36,254.39c-2.92,0-5.58-1.6-6.95-4.17-.99-1.85-1.2-3.98-.59-6,.61-2.01,1.97-3.66,3.83-4.65,1.14-.61,2.42-.93,3.7-.93,2.92,0,5.58,1.6,6.95,4.17,2.04,3.83,.59,8.61-3.24,10.65-1.14,.61-2.42,.93-3.7,.93Z"/>
                            <path class="cls-6"
                                  d="M249.34,240.64c2.18,0,4.16,1.19,5.19,3.11,.74,1.38,.89,2.97,.44,4.47-.46,1.5-1.47,2.73-2.85,3.47-.86,.46-1.79,.69-2.75,.69-2.18,0-4.17-1.19-5.19-3.11-1.52-2.86-.44-6.42,2.42-7.94,.86-.46,1.79-.69,2.76-.69m0-4c-1.57,0-3.16,.37-4.64,1.16-4.81,2.57-6.63,8.54-4.06,13.35,1.78,3.33,5.19,5.23,8.72,5.23,1.57,0,3.16-.37,4.64-1.16,4.81-2.57,6.63-8.54,4.06-13.35-1.78-3.33-5.19-5.23-8.72-5.23h0Z"/>
                        </g>
                        <g>
                            <path class="cls-7"
                                  d="M290.76,232.3c-2.92,0-5.58-1.6-6.95-4.17-.99-1.85-1.2-3.98-.59-6s1.97-3.66,3.83-4.65c1.14-.61,2.42-.93,3.7-.93,2.92,0,5.58,1.6,6.95,4.17,.99,1.85,1.2,3.98,.59,6s-1.97,3.66-3.83,4.65c-1.14,.61-2.42,.93-3.7,.93Z"/>
                            <path class="cls-6"
                                  d="M290.75,218.56c2.18,0,4.16,1.19,5.19,3.11,.74,1.38,.89,2.97,.44,4.47-.46,1.5-1.47,2.73-2.85,3.47-.86,.46-1.79,.69-2.75,.69-2.18,0-4.17-1.19-5.19-3.11-1.52-2.86-.44-6.42,2.42-7.94,.86-.46,1.79-.69,2.76-.69m0-4c-1.57,0-3.16,.37-4.64,1.16-4.81,2.57-6.63,8.54-4.06,13.35,1.78,3.33,5.19,5.23,8.72,5.23,1.57,0,3.16-.37,4.64-1.16,4.81-2.57,6.63-8.54,4.06-13.35-1.78-3.33-5.19-5.23-8.72-5.23h0Z"/>
                        </g>
                        <g>
                            <path class="cls-7"
                                  d="M332.17,210.21c-2.92,0-5.58-1.6-6.95-4.17-.99-1.85-1.2-3.98-.59-6s1.97-3.66,3.83-4.65c1.14-.61,2.42-.93,3.7-.93,2.92,0,5.58,1.6,6.95,4.17,.99,1.85,1.2,3.98,.59,6s-1.97,3.66-3.83,4.65c-1.14,.61-2.42,.93-3.7,.93Z"/>
                            <path class="cls-6"
                                  d="M332.15,196.47c2.18,0,4.16,1.19,5.19,3.11,.74,1.38,.89,2.97,.44,4.47-.46,1.5-1.47,2.73-2.85,3.47-.86,.46-1.79,.69-2.75,.69-2.18,0-4.17-1.19-5.19-3.11-.74-1.38-.89-2.97-.44-4.47s1.47-2.73,2.85-3.47c.86-.46,1.79-.69,2.76-.69m0-4c-1.57,0-3.16,.37-4.64,1.16-4.81,2.57-6.63,8.54-4.06,13.35,1.78,3.33,5.19,5.23,8.72,5.23,1.57,0,3.16-.37,4.64-1.16,4.81-2.57,6.63-8.54,4.06-13.35-1.78-3.33-5.19-5.23-8.72-5.23h0Z"/>
                        </g>
                        <g>
                            <path class="cls-7"
                                  d="M-2.15,431.47c-3.1,0-5.94-1.7-7.4-4.43-1.05-1.97-1.27-4.24-.62-6.38,.65-2.14,2.1-3.9,4.07-4.95,1.21-.65,2.57-.99,3.93-.99,3.1,0,5.93,1.7,7.39,4.43,2.17,4.07,.63,9.15-3.45,11.33-1.21,.65-2.57,.99-3.93,.99Z"/>
                            <path class="cls-6"
                                  d="M-2.16,416.23c2.55,0,4.87,1.39,6.07,3.64,.86,1.62,1.05,3.48,.51,5.23-.53,1.76-1.72,3.2-3.34,4.06-1.01,.54-2.09,.81-3.23,.81-2.55,0-4.87-1.39-6.07-3.64-.86-1.62-1.05-3.48-.51-5.23,.53-1.76,1.72-3.2,3.34-4.06,1.01-.54,2.09-.81,3.23-.81m0-3c-1.57,0-3.16,.37-4.64,1.16-4.81,2.57-6.63,8.54-4.06,13.35,1.78,3.33,5.19,5.23,8.72,5.23,1.57,0,3.16-.37,4.64-1.16,4.81-2.57,6.63-8.54,4.06-13.35-1.78-3.33-5.19-5.23-8.72-5.23h0Z"/>
                        </g>
                        <g>
                            <path class="cls-7"
                                  d="M39.26,409.39c-3.1,0-5.94-1.7-7.39-4.43-2.17-4.07-.63-9.15,3.45-11.33,1.21-.65,2.57-.99,3.93-.99,3.1,0,5.94,1.7,7.39,4.43,1.05,1.97,1.27,4.24,.62,6.38-.65,2.14-2.1,3.9-4.07,4.95-1.21,.65-2.57,.99-3.93,.99Z"/>
                            <path class="cls-6"
                                  d="M39.24,394.14c2.55,0,4.87,1.39,6.07,3.64,.86,1.62,1.05,3.48,.51,5.23-.53,1.76-1.72,3.2-3.34,4.06-1.01,.54-2.09,.81-3.23,.81-2.55,0-4.87-1.39-6.07-3.64-.86-1.62-1.05-3.48-.51-5.23,.53-1.76,1.72-3.2,3.34-4.06,1.01-.54,2.09-.81,3.23-.81m0-3c-1.57,0-3.16,.37-4.64,1.16-4.81,2.57-6.63,8.54-4.06,13.35,1.78,3.33,5.19,5.23,8.72,5.23,1.57,0,3.16-.37,4.64-1.16,4.81-2.57,6.63-8.54,4.06-13.35-1.78-3.33-5.19-5.23-8.72-5.23h0Z"/>
                        </g>
                        <g>
                            <path class="cls-7"
                                  d="M80.66,387.3c-3.1,0-5.94-1.7-7.4-4.43-1.05-1.97-1.27-4.24-.62-6.38,.65-2.14,2.1-3.9,4.07-4.95,1.21-.65,2.57-.99,3.93-.99,3.1,0,5.93,1.7,7.39,4.43,2.17,4.07,.63,9.15-3.45,11.33-1.21,.65-2.57,.99-3.93,.99Z"/>
                            <path class="cls-6"
                                  d="M80.64,372.06c2.55,0,4.87,1.39,6.07,3.64,1.78,3.34,.51,7.51-2.83,9.3-1.01,.54-2.09,.81-3.23,.81-2.55,0-4.87-1.39-6.07-3.64-.86-1.62-1.05-3.48-.51-5.23,.53-1.76,1.72-3.2,3.34-4.06,1.01-.54,2.09-.81,3.23-.81m0-3c-1.57,0-3.16,.37-4.64,1.16-4.81,2.57-6.63,8.54-4.06,13.35,1.78,3.33,5.19,5.23,8.72,5.23,1.57,0,3.16-.37,4.64-1.16,4.81-2.57,6.63-8.54,4.06-13.35-1.78-3.33-5.19-5.23-8.72-5.23h0Z"/>
                        </g>
                        <g>
                            <path class="cls-7"
                                  d="M122.06,365.21c-3.1,0-5.94-1.7-7.4-4.43-1.05-1.97-1.27-4.24-.62-6.38,.65-2.14,2.1-3.9,4.07-4.95,1.21-.65,2.57-.99,3.93-.99,3.1,0,5.94,1.7,7.39,4.43,1.05,1.97,1.27,4.24,.62,6.38-.65,2.14-2.1,3.9-4.07,4.95-1.21,.65-2.57,.99-3.93,.99Z"/>
                            <path class="cls-6"
                                  d="M122.05,349.97c2.55,0,4.87,1.39,6.07,3.64,.86,1.62,1.05,3.48,.51,5.23-.53,1.76-1.72,3.2-3.34,4.06-1.01,.54-2.09,.81-3.23,.81-2.55,0-4.87-1.39-6.07-3.64-.86-1.62-1.05-3.48-.51-5.23,.53-1.76,1.72-3.2,3.34-4.06,1.01-.54,2.09-.81,3.23-.81m0-3c-1.57,0-3.16,.37-4.64,1.16-4.81,2.57-6.63,8.54-4.06,13.35,1.78,3.33,5.19,5.23,8.72,5.23,1.57,0,3.16-.37,4.64-1.16,4.81-2.57,6.63-8.54,4.06-13.35-1.78-3.33-5.19-5.23-8.72-5.23h0Z"/>
                        </g>
                        <g>
                            <path class="cls-7"
                                  d="M163.47,343.13c-3.1,0-5.94-1.7-7.39-4.43-2.17-4.07-.63-9.15,3.45-11.33,1.21-.65,2.57-.99,3.93-.99,3.1,0,5.93,1.7,7.39,4.43,2.17,4.07,.63,9.15-3.45,11.33-1.21,.65-2.57,.99-3.93,.99Z"/>
                            <path class="cls-6"
                                  d="M163.45,327.88c2.55,0,4.87,1.39,6.07,3.64,.86,1.62,1.05,3.48,.51,5.23-.53,1.76-1.72,3.2-3.34,4.06-1.01,.54-2.09,.81-3.23,.81-2.55,0-4.87-1.39-6.07-3.64-1.78-3.34-.51-7.51,2.83-9.3,1.01-.54,2.09-.81,3.23-.81m0-3c-1.57,0-3.16,.37-4.64,1.16-4.81,2.57-6.63,8.54-4.06,13.35,1.78,3.33,5.19,5.23,8.72,5.23,1.57,0,3.16-.37,4.64-1.16,4.81-2.57,6.63-8.54,4.06-13.35-1.78-3.33-5.19-5.23-8.72-5.23h0Z"/>
                        </g>
                        <g>
                            <path class="cls-7"
                                  d="M204.87,321.04c-3.1,0-5.94-1.7-7.4-4.43-1.05-1.97-1.27-4.24-.62-6.38,.65-2.14,2.1-3.9,4.07-4.95,1.21-.65,2.57-.99,3.93-.99,3.1,0,5.94,1.7,7.39,4.43,1.05,1.97,1.27,4.24,.62,6.38-.65,2.14-2.1,3.9-4.07,4.95-1.21,.65-2.57,.99-3.93,.99Z"/>
                            <path class="cls-6"
                                  d="M204.85,305.8c2.55,0,4.87,1.39,6.07,3.64,.86,1.62,1.05,3.48,.51,5.23-.53,1.76-1.72,3.2-3.34,4.06-1.01,.54-2.09,.81-3.23,.81-2.55,0-4.87-1.39-6.07-3.64-.86-1.62-1.05-3.48-.51-5.23,.53-1.76,1.72-3.2,3.34-4.06,1.01-.54,2.09-.81,3.23-.81m0-3c-1.57,0-3.16,.37-4.64,1.16-4.81,2.57-6.63,8.54-4.06,13.35,1.78,3.33,5.19,5.23,8.72,5.23,1.57,0,3.16-.37,4.64-1.16,4.81-2.57,6.63-8.54,4.06-13.35-1.78-3.33-5.19-5.23-8.72-5.23h0Z"/>
                        </g>
                        <g>
                            <path class="cls-7"
                                  d="M246.27,298.96c-3.1,0-5.94-1.7-7.39-4.43-2.17-4.07-.63-9.15,3.45-11.33,1.21-.65,2.57-.99,3.93-.99,3.1,0,5.93,1.7,7.39,4.43,2.17,4.07,.63,9.15-3.45,11.33-1.21,.65-2.57,.99-3.93,.99Z"/>
                            <path class="cls-6"
                                  d="M246.26,283.71c2.55,0,4.87,1.39,6.07,3.64,.86,1.62,1.05,3.48,.51,5.23-.53,1.76-1.72,3.2-3.34,4.06-1.01,.54-2.09,.81-3.23,.81-2.55,0-4.87-1.39-6.07-3.64-.86-1.62-1.05-3.48-.51-5.23,.53-1.76,1.72-3.2,3.34-4.06,1.01-.54,2.09-.81,3.23-.81m0-3c-1.57,0-3.16,.37-4.64,1.16-4.81,2.57-6.63,8.54-4.06,13.35,1.78,3.33,5.19,5.23,8.72,5.23,1.57,0,3.16-.37,4.64-1.16,4.81-2.57,6.63-8.54,4.06-13.35-1.78-3.33-5.19-5.23-8.72-5.23h0Z"/>
                        </g>
                        <g>
                            <path class="cls-7"
                                  d="M287.68,276.87c-3.1,0-5.94-1.7-7.4-4.43-1.05-1.97-1.27-4.24-.62-6.38,.65-2.14,2.1-3.9,4.07-4.95,1.21-.65,2.57-.99,3.93-.99,3.1,0,5.94,1.7,7.39,4.43,1.05,1.97,1.27,4.24,.62,6.38-.65,2.14-2.1,3.9-4.07,4.95-1.21,.65-2.57,.99-3.93,.99Z"/>
                            <path class="cls-6"
                                  d="M287.66,261.62c2.55,0,4.87,1.39,6.07,3.64,1.78,3.34,.51,7.51-2.83,9.3-1.01,.54-2.09,.81-3.23,.81-2.55,0-4.87-1.39-6.07-3.64-.86-1.62-1.05-3.48-.51-5.23,.53-1.76,1.72-3.2,3.34-4.06,1.01-.54,2.09-.81,3.23-.81m0-3c-1.57,0-3.16,.37-4.64,1.16-4.81,2.57-6.63,8.54-4.06,13.35,1.78,3.33,5.19,5.23,8.72,5.23,1.57,0,3.16-.37,4.64-1.16,4.81-2.57,6.63-8.54,4.06-13.35-1.78-3.33-5.19-5.23-8.72-5.23h0Z"/>
                        </g>
                        <g>
                            <path class="cls-7"
                                  d="M329.08,254.78c-3.1,0-5.94-1.7-7.39-4.43-2.17-4.07-.63-9.15,3.45-11.33,1.21-.65,2.57-.99,3.93-.99,3.1,0,5.94,1.7,7.39,4.43,1.05,1.97,1.27,4.24,.62,6.38-.65,2.14-2.1,3.9-4.07,4.95-1.21,.65-2.57,.99-3.93,.99Z"/>
                            <path class="cls-6"
                                  d="M329.07,239.54c2.55,0,4.87,1.39,6.07,3.64,.86,1.62,1.05,3.48,.51,5.23-.53,1.76-1.72,3.2-3.34,4.06-1.01,.54-2.09,.81-3.23,.81-2.55,0-4.87-1.39-6.07-3.64-.86-1.62-1.05-3.48-.51-5.23,.53-1.76,1.72-3.2,3.34-4.06,1.01-.54,2.09-.81,3.23-.81m0-3c-1.57,0-3.16,.37-4.64,1.16-4.81,2.57-6.63,8.54-4.06,13.35,1.78,3.33,5.19,5.23,8.72,5.23,1.57,0,3.16-.37,4.64-1.16,4.81-2.57,6.63-8.54,4.06-13.35-1.78-3.33-5.19-5.23-8.72-5.23h0Z"/>
                        </g>
                        <g>
                            <path class="cls-7"
                                  d="M370.49,232.7c-3.1,0-5.94-1.7-7.39-4.43-1.05-1.97-1.27-4.24-.62-6.38,.65-2.14,2.1-3.9,4.07-4.95,1.21-.65,2.57-.99,3.93-.99,3.1,0,5.94,1.7,7.39,4.43,2.17,4.07,.63,9.15-3.45,11.33-1.21,.65-2.57,.99-3.93,.99Z"/>
                            <path class="cls-6"
                                  d="M370.47,217.45c2.55,0,4.87,1.39,6.07,3.64,.86,1.62,1.05,3.48,.51,5.23-.53,1.76-1.72,3.2-3.34,4.06-1.01,.54-2.09,.81-3.23,.81-2.55,0-4.87-1.39-6.07-3.64-.86-1.62-1.05-3.48-.51-5.23,.53-1.76,1.72-3.2,3.34-4.06,1.01-.54,2.09-.81,3.23-.81m0-3c-1.57,0-3.16,.37-4.64,1.16-4.81,2.57-6.63,8.54-4.06,13.35,1.78,3.33,5.19,5.23,8.72,5.23,1.57,0,3.16-.37,4.64-1.16,4.81-2.57,6.63-8.54,4.06-13.35-1.78-3.33-5.19-5.23-8.72-5.23h0Z"/>
                        </g>
                        <g>
                            <path class="cls-7"
                                  d="M35.59,452.87c-3.29,0-6.29-1.8-7.84-4.7-1.12-2.09-1.35-4.49-.66-6.76,.69-2.27,2.22-4.13,4.31-5.24,1.28-.68,2.72-1.05,4.17-1.05,3.29,0,6.29,1.8,7.84,4.7,1.12,2.09,1.35,4.49,.66,6.76-.69,2.27-2.22,4.13-4.31,5.24-1.28,.68-2.72,1.05-4.17,1.05Z"/>
                            <path class="cls-6"
                                  d="M35.57,436.12h0c2.92,0,5.58,1.6,6.95,4.17,.99,1.85,1.2,3.98,.59,6-.61,2.01-1.97,3.66-3.83,4.65-1.14,.61-2.42,.93-3.7,.93-2.92,0-5.58-1.6-6.95-4.17-.99-1.85-1.2-3.98-.59-6,.61-2.01,1.97-3.66,3.83-4.65,1.14-.61,2.42-.93,3.7-.93m0-2c-1.57,0-3.16,.37-4.64,1.16-4.81,2.57-6.63,8.54-4.06,13.35,1.78,3.33,5.19,5.23,8.72,5.23,1.57,0,3.16-.37,4.64-1.16,4.81-2.57,6.63-8.54,4.06-13.35-1.78-3.33-5.19-5.23-8.72-5.23h0Z"/>
                        </g>
                        <g>
                            <path class="cls-7"
                                  d="M76.99,430.78c-3.29,0-6.29-1.8-7.83-4.7-2.3-4.32-.66-9.7,3.65-12,1.28-.68,2.72-1.05,4.17-1.05,3.29,0,6.29,1.8,7.83,4.7,2.3,4.32,.66,9.7-3.65,12-1.28,.68-2.72,1.05-4.17,1.05Z"/>
                            <path class="cls-6"
                                  d="M76.98,414.04h0c2.92,0,5.58,1.6,6.95,4.17,.99,1.85,1.2,3.98,.59,6-.61,2.01-1.97,3.66-3.83,4.65-1.14,.61-2.42,.93-3.7,.93-2.92,0-5.58-1.6-6.95-4.17-.99-1.85-1.2-3.98-.59-6,.61-2.01,1.97-3.66,3.83-4.65,1.14-.61,2.42-.93,3.7-.93m0-2c-1.57,0-3.16,.37-4.64,1.16-4.81,2.57-6.63,8.54-4.06,13.35,1.78,3.33,5.19,5.23,8.72,5.23,1.57,0,3.16-.37,4.64-1.16,4.81-2.57,6.63-8.54,4.06-13.35-1.78-3.33-5.19-5.23-8.72-5.23h0Z"/>
                        </g>
                        <g>
                            <path class="cls-7"
                                  d="M118.4,408.7c-3.29,0-6.29-1.8-7.84-4.7-1.12-2.09-1.35-4.49-.66-6.76,.69-2.27,2.22-4.13,4.31-5.24,1.28-.68,2.72-1.05,4.17-1.05,3.29,0,6.29,1.8,7.83,4.7,1.12,2.09,1.35,4.49,.66,6.76-.69,2.27-2.22,4.13-4.31,5.24-1.28,.68-2.72,1.05-4.17,1.05Z"/>
                            <path class="cls-6"
                                  d="M118.38,391.95h0c2.92,0,5.58,1.6,6.95,4.17,2.04,3.83,.59,8.61-3.24,10.65-1.14,.61-2.42,.93-3.7,.93-2.92,0-5.58-1.6-6.95-4.17-.99-1.85-1.2-3.98-.59-6,.61-2.01,1.97-3.66,3.83-4.65,1.14-.61,2.42-.93,3.7-.93m0-2c-1.57,0-3.16,.37-4.64,1.16-4.81,2.57-6.63,8.54-4.06,13.35,1.78,3.33,5.19,5.23,8.72,5.23,1.57,0,3.16-.37,4.64-1.16,4.81-2.57,6.63-8.54,4.06-13.35-1.78-3.33-5.19-5.23-8.72-5.23h0Z"/>
                        </g>
                        <g>
                            <path class="cls-7"
                                  d="M159.8,386.61c-3.29,0-6.29-1.8-7.83-4.7-2.3-4.32-.66-9.7,3.65-12,1.28-.68,2.72-1.04,4.17-1.04,3.29,0,6.29,1.8,7.84,4.7,2.3,4.32,.66,9.7-3.65,12-1.28,.68-2.72,1.05-4.17,1.05Z"/>
                            <path class="cls-6"
                                  d="M159.79,369.87h0c2.92,0,5.58,1.6,6.95,4.17,.99,1.85,1.2,3.98,.59,6-.61,2.01-1.97,3.66-3.83,4.65-1.14,.61-2.42,.93-3.7,.93-2.92,0-5.58-1.6-6.95-4.17-.99-1.85-1.2-3.98-.59-6,.61-2.01,1.97-3.66,3.83-4.65,1.14-.61,2.42-.93,3.7-.93m0-2c-1.57,0-3.16,.37-4.64,1.16-4.81,2.57-6.63,8.54-4.06,13.35,1.78,3.33,5.19,5.23,8.72,5.23,1.57,0,3.16-.37,4.64-1.16,4.81-2.57,6.63-8.54,4.06-13.35-1.78-3.33-5.19-5.23-8.72-5.23h0Z"/>
                        </g>
                        <g>
                            <path class="cls-7"
                                  d="M201.21,364.52c-3.29,0-6.29-1.8-7.84-4.7-1.12-2.09-1.35-4.49-.66-6.76,.69-2.27,2.22-4.13,4.31-5.24,1.28-.68,2.72-1.05,4.17-1.05,3.29,0,6.29,1.8,7.83,4.7,2.3,4.32,.66,9.7-3.65,12-1.28,.68-2.72,1.04-4.17,1.04Z"/>
                            <path class="cls-6"
                                  d="M201.19,347.78h0c2.92,0,5.58,1.6,6.95,4.17,.99,1.85,1.2,3.98,.59,6-.61,2.01-1.97,3.66-3.83,4.65-1.14,.61-2.42,.93-3.7,.93-2.92,0-5.58-1.6-6.95-4.17-2.04-3.83-.59-8.61,3.24-10.65,1.14-.61,2.42-.93,3.7-.93m0-2c-1.57,0-3.16,.37-4.64,1.16-4.81,2.57-6.63,8.54-4.06,13.35,1.78,3.33,5.19,5.23,8.72,5.23,1.57,0,3.16-.37,4.64-1.16,4.81-2.57,6.63-8.54,4.06-13.35-1.78-3.33-5.19-5.23-8.72-5.23h0Z"/>
                        </g>
                        <g>
                            <path class="cls-7"
                                  d="M242.61,342.44c-3.29,0-6.29-1.8-7.83-4.7-2.3-4.31-.66-9.7,3.65-12,1.28-.68,2.72-1.04,4.17-1.04,3.29,0,6.29,1.8,7.84,4.7,2.3,4.32,.66,9.7-3.65,12-1.28,.68-2.72,1.05-4.17,1.05Z"/>
                            <path class="cls-6"
                                  d="M242.59,325.69h0c2.92,0,5.58,1.6,6.95,4.17,.99,1.85,1.2,3.98,.59,6-.61,2.01-1.97,3.66-3.83,4.65-1.14,.61-2.42,.93-3.7,.93-2.92,0-5.58-1.6-6.95-4.17-.99-1.85-1.2-3.98-.59-6,.61-2.01,1.97-3.66,3.83-4.65,1.14-.61,2.42-.93,3.7-.93m0-2c-1.57,0-3.16,.37-4.64,1.16-4.81,2.57-6.63,8.54-4.06,13.35,1.78,3.33,5.19,5.23,8.72,5.23,1.57,0,3.16-.37,4.64-1.16,4.81-2.57,6.63-8.54,4.06-13.35-1.78-3.33-5.19-5.23-8.72-5.23h0Z"/>
                        </g>
                        <g>
                            <path class="cls-7"
                                  d="M284.01,320.35c-3.29,0-6.29-1.8-7.84-4.7-1.12-2.09-1.35-4.49-.66-6.76,.69-2.27,2.22-4.13,4.31-5.24,1.28-.68,2.72-1.05,4.17-1.05,3.29,0,6.29,1.8,7.83,4.7,2.3,4.32,.66,9.7-3.65,12-1.28,.68-2.72,1.04-4.17,1.04Z"/>
                            <path class="cls-6"
                                  d="M284,303.61h0c2.92,0,5.58,1.6,6.95,4.17,.99,1.85,1.2,3.98,.59,6-.61,2.01-1.97,3.66-3.83,4.65-1.14,.61-2.42,.93-3.7,.93-2.92,0-5.58-1.6-6.95-4.17-.99-1.85-1.2-3.98-.59-6,.61-2.01,1.97-3.66,3.83-4.65,1.14-.61,2.42-.93,3.7-.93m0-2c-1.57,0-3.16,.37-4.64,1.16-4.81,2.57-6.63,8.54-4.06,13.35,1.78,3.33,5.19,5.23,8.72,5.23,1.57,0,3.16-.37,4.64-1.16,4.81-2.57,6.63-8.54,4.06-13.35-1.78-3.33-5.19-5.23-8.72-5.23h0Z"/>
                        </g>
                        <g>
                            <path class="cls-7"
                                  d="M325.42,298.26c-3.29,0-6.29-1.8-7.83-4.7-2.3-4.31-.66-9.7,3.65-12,1.28-.68,2.72-1.04,4.17-1.04,3.29,0,6.29,1.8,7.84,4.7,2.3,4.32,.66,9.7-3.65,12-1.28,.68-2.72,1.05-4.17,1.05Z"/>
                            <path class="cls-6"
                                  d="M325.4,281.52h0c2.92,0,5.58,1.6,6.95,4.17,.99,1.85,1.2,3.98,.59,6-.61,2.01-1.97,3.66-3.83,4.65-1.14,.61-2.42,.93-3.7,.93-2.92,0-5.58-1.6-6.95-4.17-.99-1.85-1.2-3.98-.59-6,.61-2.01,1.97-3.66,3.83-4.65,1.14-.61,2.42-.93,3.7-.93m0-2c-1.57,0-3.16,.37-4.64,1.16-4.81,2.57-6.63,8.54-4.06,13.35,1.78,3.33,5.19,5.23,8.72,5.23,1.57,0,3.16-.37,4.64-1.16,4.81-2.57,6.63-8.54,4.06-13.35-1.78-3.33-5.19-5.23-8.72-5.23h0Z"/>
                        </g>
                        <g>
                            <path class="cls-7"
                                  d="M366.82,276.18c-3.29,0-6.29-1.8-7.84-4.7-2.3-4.32-.66-9.7,3.65-12,1.28-.68,2.72-1.05,4.17-1.05,3.29,0,6.29,1.8,7.83,4.7,2.3,4.31,.67,9.7-3.65,12-1.28,.68-2.72,1.04-4.17,1.04Z"/>
                            <path class="cls-6"
                                  d="M366.8,259.43h0c2.92,0,5.58,1.6,6.95,4.17,.99,1.85,1.2,3.98,.59,6-.61,2.01-1.97,3.66-3.83,4.65-1.14,.61-2.42,.93-3.7,.93-2.92,0-5.58-1.6-6.95-4.17-.99-1.85-1.2-3.98-.59-6,.61-2.01,1.97-3.66,3.83-4.65,1.14-.61,2.42-.93,3.7-.93m0-2c-1.57,0-3.16,.37-4.64,1.16-4.81,2.57-6.63,8.54-4.06,13.35,1.78,3.33,5.19,5.23,8.72,5.23,1.57,0,3.16-.37,4.64-1.16,4.81-2.57,6.63-8.54,4.06-13.35-1.78-3.33-5.19-5.23-8.72-5.23h0Z"/>
                        </g>
                        <g>
                            <path class="cls-7"
                                  d="M115.31,453.27c-3.47,0-6.64-1.9-8.28-4.96-1.18-2.21-1.43-4.74-.7-7.14s2.35-4.36,4.55-5.54c1.35-.72,2.88-1.11,4.4-1.11,3.47,0,6.64,1.9,8.28,4.96,2.43,4.56,.7,10.25-3.86,12.68-1.35,.72-2.88,1.1-4.4,1.1Z"/>
                            <path class="cls-6"
                                  d="M115.3,435.02h0c3.29,0,6.29,1.8,7.83,4.7,2.3,4.32,.66,9.7-3.65,12-1.28,.68-2.72,1.05-4.17,1.05-3.29,0-6.29-1.8-7.84-4.7-1.12-2.09-1.35-4.49-.66-6.76,.69-2.27,2.22-4.13,4.31-5.24,1.28-.68,2.72-1.05,4.17-1.05m0-1c-1.57,0-3.16,.37-4.64,1.16-4.81,2.57-6.63,8.54-4.06,13.35,1.78,3.33,5.19,5.23,8.72,5.23,1.57,0,3.16-.37,4.64-1.16,4.81-2.57,6.63-8.54,4.06-13.35-1.78-3.33-5.19-5.23-8.72-5.23h0Z"/>
                        </g>
                        <g>
                            <path class="cls-7"
                                  d="M156.72,431.18c-3.47,0-6.64-1.9-8.28-4.96-1.18-2.21-1.43-4.74-.7-7.14s2.35-4.36,4.55-5.54c1.35-.72,2.88-1.1,4.4-1.1,3.47,0,6.64,1.9,8.28,4.96,1.18,2.21,1.43,4.74,.7,7.14s-2.35,4.36-4.55,5.54c-1.35,.72-2.88,1.1-4.4,1.1Z"/>
                            <path class="cls-6"
                                  d="M156.7,412.93h0c3.29,0,6.29,1.8,7.83,4.7,2.3,4.32,.66,9.7-3.65,12-1.28,.68-2.72,1.05-4.17,1.05-3.29,0-6.29-1.8-7.84-4.7-1.12-2.09-1.35-4.49-.66-6.76,.69-2.27,2.22-4.13,4.31-5.24,1.28-.68,2.72-1.05,4.17-1.05m0-1c-1.57,0-3.16,.37-4.64,1.16-4.81,2.57-6.63,8.54-4.06,13.35,1.78,3.33,5.19,5.23,8.72,5.23,1.57,0,3.16-.37,4.64-1.16,4.81-2.57,6.63-8.54,4.06-13.35-1.78-3.33-5.19-5.23-8.72-5.23h0Z"/>
                        </g>
                        <g>
                            <path class="cls-7"
                                  d="M198.12,409.09c-3.47,0-6.64-1.9-8.28-4.96-2.43-4.56-.7-10.25,3.86-12.68,1.35-.72,2.88-1.11,4.4-1.11,3.47,0,6.64,1.9,8.28,4.96,2.43,4.56,.7,10.25-3.86,12.68-1.35,.72-2.88,1.11-4.4,1.11Z"/>
                            <path class="cls-6"
                                  d="M198.11,390.85h0c3.29,0,6.29,1.8,7.83,4.7,1.12,2.09,1.35,4.49,.66,6.76-.69,2.27-2.22,4.13-4.31,5.24-1.28,.68-2.72,1.05-4.17,1.05-3.29,0-6.29-1.8-7.84-4.7-1.12-2.09-1.35-4.49-.66-6.76,.69-2.27,2.22-4.13,4.31-5.24,1.28-.68,2.72-1.05,4.17-1.05m0-1c-1.57,0-3.16,.37-4.64,1.16-4.81,2.57-6.63,8.54-4.06,13.35,1.78,3.33,5.19,5.23,8.72,5.23,1.57,0,3.16-.37,4.64-1.16,4.81-2.57,6.63-8.54,4.06-13.35-1.78-3.33-5.19-5.23-8.72-5.23h0Z"/>
                        </g>
                        <g>
                            <path class="cls-7"
                                  d="M239.53,387.01c-3.47,0-6.64-1.9-8.28-4.96-1.18-2.21-1.43-4.74-.7-7.14s2.35-4.36,4.55-5.54c1.35-.72,2.88-1.1,4.4-1.1,3.47,0,6.64,1.9,8.28,4.96,1.18,2.21,1.43,4.74,.7,7.14s-2.35,4.36-4.55,5.54c-1.35,.72-2.88,1.1-4.4,1.1Z"/>
                            <path class="cls-6"
                                  d="M239.51,368.76h0c3.29,0,6.29,1.8,7.83,4.7,2.3,4.32,.66,9.7-3.65,12-1.28,.68-2.72,1.05-4.17,1.05-3.29,0-6.29-1.8-7.84-4.7-1.12-2.09-1.35-4.49-.66-6.76,.69-2.27,2.22-4.13,4.31-5.24,1.28-.68,2.72-1.05,4.17-1.05m0-1c-1.57,0-3.16,.37-4.64,1.16-4.81,2.57-6.63,8.54-4.06,13.35,1.78,3.33,5.19,5.23,8.72,5.23,1.57,0,3.16-.37,4.64-1.16,4.81-2.57,6.63-8.54,4.06-13.35-1.78-3.33-5.19-5.23-8.72-5.23h0Z"/>
                        </g>
                        <g>
                            <path class="cls-7"
                                  d="M280.93,364.92c-3.47,0-6.64-1.9-8.28-4.96-2.43-4.56-.7-10.25,3.86-12.68,1.35-.72,2.88-1.11,4.4-1.11,3.47,0,6.64,1.9,8.28,4.96,1.18,2.21,1.43,4.74,.7,7.14s-2.35,4.36-4.55,5.54c-1.35,.72-2.88,1.11-4.4,1.11Z"/>
                            <path class="cls-6"
                                  d="M280.91,346.67h0c3.29,0,6.29,1.8,7.83,4.7,1.12,2.09,1.35,4.49,.66,6.76-.69,2.27-2.22,4.13-4.31,5.24-1.28,.68-2.72,1.05-4.17,1.05-3.29,0-6.29-1.8-7.84-4.7-1.12-2.09-1.35-4.49-.66-6.76,.69-2.27,2.22-4.13,4.31-5.24,1.28-.68,2.72-1.05,4.17-1.05m0-1c-1.57,0-3.16,.37-4.64,1.16-4.81,2.57-6.63,8.54-4.06,13.35,1.78,3.33,5.19,5.23,8.72,5.23,1.57,0,3.16-.37,4.64-1.16,4.81-2.57,6.63-8.54,4.06-13.35-1.78-3.33-5.19-5.23-8.72-5.23h0Z"/>
                        </g>
                        <g>
                            <path class="cls-7"
                                  d="M322.33,342.83c-3.47,0-6.64-1.9-8.28-4.96-1.18-2.21-1.43-4.74-.7-7.14s2.35-4.36,4.55-5.54c1.35-.72,2.88-1.1,4.4-1.1,3.47,0,6.64,1.9,8.28,4.96,1.18,2.21,1.43,4.74,.7,7.14s-2.35,4.36-4.55,5.54c-1.35,.72-2.88,1.1-4.4,1.1Z"/>
                            <path class="cls-6"
                                  d="M322.32,324.59h0c3.29,0,6.29,1.8,7.83,4.7,1.12,2.09,1.35,4.49,.66,6.76-.69,2.27-2.22,4.13-4.31,5.24-1.28,.68-2.72,1.05-4.17,1.05-3.29,0-6.29-1.8-7.84-4.7-2.3-4.32-.66-9.7,3.65-12,1.28-.68,2.72-1.05,4.17-1.05m0-1c-1.57,0-3.16,.37-4.64,1.16-4.81,2.57-6.63,8.54-4.06,13.35,1.78,3.33,5.19,5.23,8.72,5.23,1.57,0,3.16-.37,4.64-1.16,4.81-2.57,6.63-8.54,4.06-13.35-1.78-3.33-5.19-5.23-8.72-5.23h0Z"/>
                        </g>
                        <g>
                            <path class="cls-7"
                                  d="M363.74,320.75c-3.47,0-6.64-1.9-8.28-4.96-2.43-4.56-.7-10.25,3.86-12.68,1.35-.72,2.88-1.1,4.4-1.1,3.47,0,6.64,1.9,8.28,4.96,2.43,4.56,.7,10.25-3.86,12.68-1.35,.72-2.88,1.11-4.4,1.11Z"/>
                            <path class="cls-6"
                                  d="M363.72,302.5h0c3.29,0,6.29,1.8,7.83,4.7,1.12,2.09,1.35,4.49,.66,6.76-.69,2.27-2.22,4.13-4.31,5.24-1.28,.68-2.72,1.05-4.17,1.05-3.29,0-6.29-1.8-7.84-4.7-1.12-2.09-1.35-4.49-.66-6.76,.69-2.27,2.22-4.13,4.31-5.24,1.28-.68,2.72-1.05,4.17-1.05m0-1c-1.57,0-3.16,.37-4.64,1.16-4.81,2.57-6.63,8.54-4.06,13.35,1.78,3.33,5.19,5.23,8.72,5.23,1.57,0,3.16-.37,4.64-1.16,4.81-2.57,6.63-8.54,4.06-13.35-1.78-3.33-5.19-5.23-8.72-5.23h0Z"/>
                        </g>
                        <g>
                            <path class="cls-7"
                                  d="M405.14,298.66c-3.47,0-6.64-1.9-8.28-4.96-2.43-4.56-.7-10.25,3.86-12.68,1.35-.72,2.88-1.1,4.4-1.1,3.47,0,6.64,1.9,8.28,4.96,2.43,4.56,.7,10.25-3.86,12.68-1.35,.72-2.88,1.1-4.4,1.1Z"/>
                            <path class="cls-6"
                                  d="M405.12,280.42h0c3.29,0,6.29,1.8,7.83,4.7,2.3,4.32,.66,9.7-3.65,12-1.28,.68-2.72,1.05-4.17,1.05-3.29,0-6.29-1.8-7.84-4.7-1.12-2.09-1.35-4.49-.66-6.76,.69-2.27,2.22-4.13,4.31-5.24,1.28-.68,2.72-1.05,4.17-1.05m0-1c-1.57,0-3.16,.37-4.64,1.16-4.81,2.57-6.63,8.54-4.06,13.35,1.78,3.33,5.19,5.23,8.72,5.23,1.57,0,3.16-.37,4.64-1.16,4.81-2.57,6.63-8.54,4.06-13.35-1.78-3.33-5.19-5.23-8.72-5.23h0Z"/>
                        </g>
                        <circle class="cls-7" cx="194.45" cy="442.7" r="9.87"/>
                        <circle class="cls-7" cx="235.85" cy="420.61" r="9.87"/>
                        <circle class="cls-7" cx="277.26" cy="398.53" r="9.87"/>
                        <circle class="cls-7" cx="318.66" cy="376.44" r="9.87"/>
                        <circle class="cls-7" cx="360.06" cy="354.36" r="9.87"/>
                        <circle class="cls-7" cx="401.47" cy="332.27" r="9.87"/>
                        <circle class="cls-7" cx="274.17" cy="442.6" r="9.87"/>
                        <circle class="cls-7" cx="315.57" cy="420.51" r="9.87"/>
                        <circle class="cls-7" cx="356.98" cy="398.42" r="9.87"/>
                        <circle class="cls-7" cx="398.38" cy="376.34" r="9.87"/>
                        <circle class="cls-7" cx="439.79" cy="354.25" r="9.87"/>
                        <circle class="cls-7" cx="353.31" cy="441.41" r="9.87"/>
                        <circle class="cls-7" cx="394.72" cy="419.32" r="9.87"/>
                        <circle class="cls-7" cx="436.12" cy="397.23" r="9.87"/>
                    </g>
                    <g>
                        <g>
                            <path class="cls-7"
                                  d="M342.58,78.68c-2.36,0-4.52-1.29-5.63-3.37-.8-1.5-.97-3.22-.47-4.85,.5-1.63,1.6-2.97,3.1-3.77,.94-.5,1.94-.75,2.99-.75,2.36,0,4.52,1.29,5.63,3.37,.8,1.5,.97,3.23,.47,4.85s-1.6,2.97-3.1,3.77c-.93,.5-1.94,.75-2.99,.75Z"/>
                            <path class="cls-6"
                                  d="M342.57,69.44c.84,0,1.94,.4,2.54,1.52,.74,1.4,.21,3.14-1.18,3.88-.42,.23-.87,.34-1.34,.34-.84,0-1.94-.4-2.54-1.52-.74-1.4-.21-3.14,1.18-3.88,.42-.23,.87-.34,1.34-.34m0-7c-1.57,0-3.16,.37-4.64,1.16-4.81,2.57-6.63,8.54-4.06,13.35,1.78,3.33,5.19,5.23,8.72,5.23,1.57,0,3.16-.37,4.64-1.16,4.81-2.57,6.63-8.54,4.06-13.35-1.78-3.33-5.19-5.23-8.72-5.23h0Z"/>
                        </g>
                        <g>
                            <path class="cls-7"
                                  d="M383.99,56.6c-2.36,0-4.52-1.29-5.63-3.37-1.65-3.1-.48-6.97,2.62-8.62,.93-.5,1.94-.75,2.99-.75,2.36,0,4.52,1.29,5.63,3.37,1.65,3.1,.48,6.97-2.62,8.62-.93,.5-1.94,.75-2.99,.75Z"/>
                            <path class="cls-6"
                                  d="M383.97,47.35c.84,0,1.94,.4,2.54,1.52,.74,1.4,.21,3.14-1.18,3.88-.42,.23-.87,.34-1.34,.34-.84,0-1.94-.4-2.54-1.52-.74-1.4-.21-3.14,1.18-3.88,.42-.23,.87-.34,1.34-.34m0-7c-1.57,0-3.16,.37-4.64,1.16-4.81,2.57-6.63,8.54-4.06,13.35,1.78,3.33,5.19,5.23,8.72,5.23,1.57,0,3.16-.37,4.64-1.16,4.81-2.57,6.63-8.54,4.06-13.35-1.78-3.33-5.19-5.23-8.72-5.23h0Z"/>
                        </g>
                        <g>
                            <path class="cls-7"
                                  d="M425.39,34.51c-2.36,0-4.52-1.29-5.63-3.37-.8-1.5-.97-3.23-.47-4.85,.5-1.63,1.59-2.96,3.1-3.77,.93-.5,1.94-.75,2.99-.75,2.36,0,4.52,1.29,5.63,3.37,.8,1.5,.97,3.23,.47,4.85-.5,1.63-1.59,2.97-3.1,3.77-.93,.5-1.94,.75-2.99,.75Z"/>
                            <path class="cls-6"
                                  d="M425.37,25.26c.84,0,1.94,.4,2.54,1.52,.74,1.4,.21,3.14-1.18,3.88-.42,.23-.87,.34-1.34,.34-.84,0-1.94-.4-2.54-1.52-.49-.91-.34-1.76-.21-2.19s.48-1.21,1.4-1.7c.42-.23,.87-.34,1.34-.34m0-7c-1.57,0-3.16,.37-4.64,1.16-4.81,2.57-6.63,8.54-4.06,13.35,1.78,3.33,5.19,5.23,8.72,5.23,1.57,0,3.16-.37,4.64-1.16,4.81-2.57,6.63-8.54,4.06-13.35-1.78-3.33-5.19-5.23-8.72-5.23h0Z"/>
                        </g>
                        <g>
                            <path class="cls-7"
                                  d="M466.79,12.42c-2.36,0-4.52-1.29-5.63-3.37-1.65-3.1-.48-6.97,2.62-8.62,.93-.5,1.94-.75,2.99-.75,2.36,0,4.52,1.29,5.63,3.37,1.65,3.1,.48,6.97-2.62,8.62-.93,.5-1.94,.75-2.99,.75Z"/>
                            <path class="cls-6"
                                  d="M466.78,3.18c.84,0,1.94,.4,2.54,1.52,.74,1.4,.21,3.14-1.18,3.88-.42,.23-.87,.34-1.34,.34-.84,0-1.94-.4-2.54-1.52-.49-.91-.34-1.76-.21-2.19s.48-1.21,1.4-1.7c.42-.23,.87-.34,1.34-.34m0-7c-1.57,0-3.16,.37-4.64,1.16-4.81,2.57-6.63,8.54-4.06,13.35,1.78,3.33,5.19,5.23,8.72,5.23,1.57,0,3.16-.37,4.64-1.16,4.81-2.57,6.63-8.54,4.06-13.35-1.78-3.33-5.19-5.23-8.72-5.23h0Z"/>
                        </g>
                        <g>
                            <path class="cls-7"
                                  d="M338.92,122.16c-2.55,0-4.87-1.39-6.07-3.64-1.78-3.34-.51-7.51,2.83-9.3,1.01-.54,2.09-.81,3.22-.81,2.55,0,4.87,1.39,6.07,3.64,.86,1.62,1.05,3.48,.51,5.23s-1.72,3.2-3.34,4.06c-1.01,.54-2.09,.81-3.23,.81Z"/>
                            <path class="cls-6"
                                  d="M338.9,111.42c1.44,0,2.75,.79,3.42,2.05,1,1.88,.29,4.23-1.59,5.24-.57,.3-1.18,.46-1.81,.46-1.44,0-2.75-.79-3.42-2.05-1-1.88-.29-4.23,1.59-5.24,.57-.3,1.18-.46,1.81-.46m0-6c-1.57,0-3.16,.37-4.64,1.16-4.81,2.57-6.63,8.54-4.06,13.35,1.78,3.33,5.19,5.23,8.72,5.23,1.57,0,3.16-.37,4.64-1.16,4.81-2.57,6.63-8.54,4.06-13.35-1.78-3.33-5.19-5.23-8.72-5.23h0Z"/>
                        </g>
                        <g>
                            <path class="cls-7"
                                  d="M380.32,100.08c-2.55,0-4.87-1.39-6.07-3.64-1.78-3.34-.51-7.51,2.83-9.3,1.01-.54,2.09-.81,3.22-.81,2.55,0,4.87,1.39,6.07,3.64,.86,1.62,1.05,3.48,.51,5.23-.53,1.76-1.72,3.2-3.34,4.06-1.01,.54-2.09,.81-3.22,.81Z"/>
                            <path class="cls-6"
                                  d="M380.3,89.33c1.44,0,2.75,.79,3.42,2.05,1,1.88,.29,4.23-1.59,5.24-.57,.3-1.18,.46-1.81,.46-1.44,0-2.75-.79-3.42-2.05-.49-.91-.59-1.96-.29-2.95,.3-.99,.97-1.8,1.88-2.29,.57-.3,1.18-.46,1.81-.46m0-6c-1.57,0-3.16,.37-4.64,1.16-4.81,2.57-6.63,8.54-4.06,13.35,1.78,3.33,5.19,5.23,8.72,5.23,1.57,0,3.16-.37,4.64-1.16,4.81-2.57,6.63-8.54,4.06-13.35-1.78-3.33-5.19-5.23-8.72-5.23h0Z"/>
                        </g>
                        <g>
                            <path class="cls-7"
                                  d="M421.72,77.99c-2.55,0-4.87-1.39-6.07-3.64-.86-1.62-1.05-3.48-.51-5.23,.53-1.76,1.72-3.2,3.34-4.06,1.01-.54,2.09-.81,3.22-.81,2.55,0,4.87,1.39,6.07,3.64,1.78,3.34,.51,7.51-2.83,9.3-1.01,.54-2.09,.81-3.22,.81Z"/>
                            <path class="cls-6"
                                  d="M421.71,67.25c1.44,0,2.75,.79,3.42,2.05,.49,.91,.59,1.96,.29,2.95-.3,.99-.97,1.8-1.88,2.29-.57,.3-1.18,.46-1.81,.46-1.44,0-2.75-.79-3.42-2.05-1-1.88-.29-4.23,1.59-5.24,.57-.3,1.18-.46,1.81-.46m0-6c-1.57,0-3.16,.37-4.64,1.16-4.81,2.57-6.63,8.54-4.06,13.35,1.78,3.33,5.19,5.23,8.72,5.23,1.57,0,3.16-.37,4.64-1.16,4.81-2.57,6.63-8.54,4.06-13.35-1.78-3.33-5.19-5.23-8.72-5.23h0Z"/>
                        </g>
                        <g>
                            <path class="cls-7"
                                  d="M463.13,55.9c-2.55,0-4.87-1.39-6.07-3.64-1.78-3.34-.51-7.51,2.83-9.3,1.01-.54,2.09-.81,3.22-.81,2.55,0,4.87,1.39,6.07,3.64,.86,1.62,1.05,3.48,.51,5.23s-1.72,3.2-3.34,4.06c-1.01,.54-2.09,.81-3.22,.81Z"/>
                            <path class="cls-6"
                                  d="M463.11,45.16c1.44,0,2.75,.79,3.42,2.05,.49,.91,.59,1.96,.29,2.95-.3,.99-.97,1.8-1.88,2.29-.57,.3-1.18,.46-1.81,.46-1.44,0-2.75-.79-3.42-2.05-1-1.88-.29-4.23,1.59-5.24,.57-.3,1.18-.46,1.81-.46m0-6c-1.57,0-3.16,.37-4.64,1.16-4.81,2.57-6.63,8.54-4.06,13.35,1.78,3.33,5.19,5.23,8.72,5.23,1.57,0,3.16-.37,4.64-1.16,4.81-2.57,6.63-8.54,4.06-13.35-1.78-3.33-5.19-5.23-8.72-5.23h0Z"/>
                        </g>
                        <g>
                            <path class="cls-7"
                                  d="M504.53,33.82c-2.55,0-4.87-1.39-6.07-3.64-.86-1.62-1.05-3.48-.51-5.23,.53-1.76,1.72-3.2,3.34-4.06,1.01-.54,2.09-.81,3.22-.81,2.55,0,4.87,1.39,6.07,3.64,1.78,3.34,.51,7.51-2.83,9.3-1.01,.54-2.09,.81-3.22,.81Z"/>
                            <path class="cls-6"
                                  d="M504.52,23.07c1.44,0,2.75,.79,3.42,2.05,.49,.91,.59,1.96,.29,2.95-.3,.99-.97,1.8-1.88,2.29-.57,.3-1.18,.46-1.81,.46-1.44,0-2.75-.79-3.42-2.05-1-1.88-.29-4.23,1.59-5.24,.57-.3,1.18-.46,1.81-.46m0-6c-1.57,0-3.16,.37-4.64,1.16-4.81,2.57-6.63,8.54-4.06,13.35,1.78,3.33,5.19,5.23,8.72,5.23,1.57,0,3.16-.37,4.64-1.16,4.81-2.57,6.63-8.54,4.06-13.35-1.78-3.33-5.19-5.23-8.72-5.23h0Z"/>
                        </g>
                        <g>
                            <path class="cls-7"
                                  d="M545.94,11.73c-2.55,0-4.87-1.39-6.07-3.64-1.78-3.34-.51-7.51,2.83-9.3,1.01-.54,2.09-.81,3.22-.81,2.55,0,4.87,1.39,6.07,3.64,.86,1.62,1.05,3.48,.51,5.23s-1.72,3.2-3.34,4.06c-1.01,.54-2.09,.81-3.22,.81Z"/>
                            <path class="cls-6"
                                  d="M545.92,.99c1.44,0,2.75,.79,3.42,2.05,.49,.91,.59,1.96,.29,2.95-.3,.99-.97,1.8-1.88,2.29-.57,.3-1.18,.46-1.81,.46-1.44,0-2.75-.79-3.42-2.05-1-1.88-.29-4.23,1.59-5.24,.57-.3,1.18-.46,1.81-.46m0-6c-1.57,0-3.16,.37-4.64,1.16-4.81,2.57-6.63,8.54-4.06,13.35,1.78,3.33,5.19,5.23,8.72,5.23,1.57,0,3.16-.37,4.64-1.16,4.81-2.57,6.63-8.54,4.06-13.35-1.78-3.33-5.19-5.23-8.72-5.23h0Z"/>
                        </g>
                        <g>
                            <path class="cls-7"
                                  d="M377.24,144.65c-2.73,0-5.23-1.5-6.51-3.9-.93-1.74-1.12-3.73-.55-5.61,.57-1.88,1.84-3.43,3.58-4.36,1.08-.58,2.25-.87,3.46-.87,2.73,0,5.23,1.5,6.51,3.9,1.91,3.59,.55,8.06-3.03,9.97-1.08,.58-2.25,.87-3.46,.87Z"/>
                            <path class="cls-6"
                                  d="M377.22,132.4c1.81,0,3.46,.99,4.3,2.58,.61,1.15,.74,2.47,.36,3.71-.38,1.24-1.22,2.27-2.37,2.88-.72,.38-1.48,.58-2.28,.58-1.81,0-3.46-.99-4.31-2.58-1.26-2.37-.36-5.33,2-6.59,.72-.38,1.48-.58,2.28-.58m0-5c-1.57,0-3.16,.37-4.64,1.16-4.81,2.57-6.63,8.54-4.06,13.35,1.78,3.33,5.19,5.23,8.72,5.23,1.57,0,3.16-.37,4.64-1.16,4.81-2.57,6.63-8.54,4.06-13.35-1.78-3.33-5.19-5.23-8.72-5.23h0Z"/>
                        </g>
                        <g>
                            <path class="cls-7"
                                  d="M418.64,122.56c-2.73,0-5.23-1.5-6.51-3.9-1.91-3.59-.55-8.06,3.03-9.97,1.08-.58,2.25-.87,3.46-.87,2.73,0,5.23,1.5,6.51,3.9,.93,1.74,1.12,3.73,.55,5.61-.57,1.88-1.85,3.43-3.58,4.36-1.08,.58-2.25,.87-3.46,.87Z"/>
                            <path class="cls-6"
                                  d="M418.62,110.31c1.81,0,3.46,.99,4.3,2.58,.61,1.15,.74,2.47,.36,3.71-.38,1.24-1.22,2.27-2.37,2.88-.72,.38-1.48,.58-2.28,.58-1.81,0-3.46-.99-4.31-2.58-1.26-2.37-.36-5.33,2-6.59,.72-.38,1.48-.58,2.28-.58m0-5c-1.57,0-3.16,.37-4.64,1.16-4.81,2.57-6.63,8.54-4.06,13.35,1.78,3.33,5.19,5.23,8.72,5.23,1.57,0,3.16-.37,4.64-1.16,4.81-2.57,6.63-8.54,4.06-13.35-1.78-3.33-5.19-5.23-8.72-5.23h0Z"/>
                        </g>
                        <g>
                            <path class="cls-7"
                                  d="M460.04,100.47c-2.73,0-5.23-1.5-6.51-3.9-.93-1.74-1.12-3.73-.55-5.61,.57-1.88,1.84-3.43,3.58-4.36,1.08-.58,2.25-.87,3.46-.87,2.73,0,5.23,1.5,6.51,3.9,1.91,3.59,.55,8.06-3.03,9.97-1.08,.58-2.25,.87-3.46,.87Z"/>
                            <path class="cls-6"
                                  d="M460.03,88.23c1.81,0,3.46,.99,4.3,2.58,.61,1.15,.74,2.47,.36,3.71-.38,1.24-1.22,2.27-2.37,2.88-.72,.38-1.48,.58-2.28,.58-1.81,0-3.46-.99-4.31-2.58-1.26-2.37-.36-5.33,2-6.59,.72-.38,1.48-.58,2.28-.58m0-5c-1.57,0-3.16,.37-4.64,1.16-4.81,2.57-6.63,8.54-4.06,13.35,1.78,3.33,5.19,5.23,8.72,5.23,1.57,0,3.16-.37,4.64-1.16,4.81-2.57,6.63-8.54,4.06-13.35-1.78-3.33-5.19-5.23-8.72-5.23h0Z"/>
                        </g>
                        <g>
                            <path class="cls-7"
                                  d="M501.45,78.39c-2.73,0-5.23-1.5-6.51-3.9-1.91-3.59-.55-8.06,3.03-9.97,1.08-.58,2.25-.87,3.46-.87,2.73,0,5.23,1.5,6.51,3.9,.93,1.74,1.12,3.73,.55,5.61-.57,1.88-1.85,3.43-3.58,4.36-1.08,.58-2.25,.87-3.46,.87Z"/>
                            <path class="cls-6"
                                  d="M501.43,66.14c1.81,0,3.46,.99,4.3,2.58,.61,1.15,.74,2.47,.36,3.71-.38,1.24-1.22,2.27-2.37,2.88-.72,.38-1.48,.58-2.28,.58-1.81,0-3.46-.99-4.31-2.58-1.26-2.37-.36-5.33,2-6.59,.72-.38,1.48-.58,2.28-.58m0-5c-1.57,0-3.16,.37-4.64,1.16-4.81,2.57-6.63,8.54-4.06,13.35,1.78,3.33,5.19,5.23,8.72,5.23,1.57,0,3.16-.37,4.64-1.16,4.81-2.57,6.63-8.54,4.06-13.35-1.78-3.33-5.19-5.23-8.72-5.23h0Z"/>
                        </g>
                        <g>
                            <path class="cls-7"
                                  d="M542.85,56.3c-2.73,0-5.23-1.5-6.51-3.9-.93-1.74-1.12-3.73-.55-5.61,.57-1.88,1.84-3.43,3.58-4.36,1.08-.58,2.25-.87,3.46-.87,2.73,0,5.23,1.5,6.51,3.9,.93,1.74,1.12,3.73,.55,5.61s-1.84,3.43-3.58,4.36c-1.08,.58-2.25,.87-3.46,.87Z"/>
                            <path class="cls-6"
                                  d="M542.83,44.06c1.81,0,3.46,.99,4.3,2.58,.61,1.15,.74,2.47,.36,3.71-.38,1.24-1.22,2.27-2.37,2.88-.72,.38-1.48,.58-2.28,.58-1.81,0-3.46-.99-4.31-2.58-1.26-2.37-.36-5.33,2-6.59,.72-.38,1.48-.58,2.28-.58m0-5c-1.57,0-3.16,.37-4.64,1.16-4.81,2.57-6.63,8.54-4.06,13.35,1.78,3.33,5.19,5.23,8.72,5.23,1.57,0,3.16-.37,4.64-1.16,4.81-2.57,6.63-8.54,4.06-13.35-1.78-3.33-5.19-5.23-8.72-5.23h0Z"/>
                        </g>
                        <g>
                            <path class="cls-7"
                                  d="M584.25,34.21c-2.73,0-5.23-1.5-6.51-3.9-1.91-3.59-.55-8.06,3.03-9.97,1.08-.58,2.25-.87,3.46-.87,2.73,0,5.23,1.5,6.51,3.9,.93,1.74,1.12,3.73,.55,5.61-.57,1.88-1.85,3.43-3.58,4.36-1.08,.58-2.25,.87-3.46,.87Z"/>
                            <path class="cls-6"
                                  d="M584.24,21.97c1.81,0,3.46,.99,4.3,2.58,.61,1.15,.74,2.47,.36,3.71-.38,1.24-1.22,2.27-2.37,2.88-.72,.38-1.48,.58-2.28,.58-1.81,0-3.46-.99-4.31-2.58-1.26-2.37-.36-5.33,2-6.59,.72-.38,1.48-.58,2.28-.58m0-5c-1.57,0-3.16,.37-4.64,1.16-4.81,2.57-6.63,8.54-4.06,13.35,1.78,3.33,5.19,5.23,8.72,5.23,1.57,0,3.16-.37,4.64-1.16,4.81-2.57,6.63-8.54,4.06-13.35-1.78-3.33-5.19-5.23-8.72-5.23h0Z"/>
                        </g>
                        <g>
                            <path class="cls-7"
                                  d="M625.66,12.13c-2.73,0-5.23-1.5-6.51-3.9-.93-1.74-1.12-3.73-.55-5.61,.57-1.88,1.84-3.43,3.58-4.36,1.08-.58,2.25-.87,3.46-.87,2.73,0,5.23,1.5,6.51,3.9,1.91,3.59,.55,8.06-3.03,9.97-1.08,.58-2.25,.87-3.46,.87Z"/>
                            <path class="cls-6"
                                  d="M625.64-.12c1.81,0,3.46,.99,4.3,2.58,.61,1.15,.74,2.47,.36,3.71-.38,1.24-1.22,2.27-2.37,2.88-.72,.38-1.48,.58-2.28,.58-1.81,0-3.46-.99-4.31-2.58-1.26-2.37-.36-5.33,2-6.59,.72-.38,1.48-.58,2.28-.58m0-5c-1.57,0-3.16,.37-4.64,1.16-4.81,2.57-6.63,8.54-4.06,13.35,1.78,3.33,5.19,5.23,8.72,5.23,1.57,0,3.16-.37,4.64-1.16,4.81-2.57,6.63-8.54,4.06-13.35-1.78-3.33-5.19-5.23-8.72-5.23h0Z"/>
                        </g>
                        <g>
                            <path class="cls-7"
                                  d="M373.57,188.13c-2.92,0-5.58-1.6-6.95-4.17-2.04-3.83-.59-8.61,3.24-10.65,1.14-.61,2.42-.93,3.7-.93,2.92,0,5.58,1.6,6.95,4.17,2.04,3.83,.59,8.61-3.24,10.65-1.14,.61-2.42,.93-3.7,.93Z"/>
                            <path class="cls-6"
                                  d="M373.55,174.38c2.18,0,4.16,1.19,5.19,3.11,.74,1.38,.89,2.97,.44,4.47-.46,1.5-1.47,2.73-2.85,3.47-.86,.46-1.79,.69-2.75,.69-2.18,0-4.17-1.19-5.19-3.11-1.52-2.86-.44-6.42,2.42-7.94,.86-.46,1.79-.69,2.76-.69m0-4c-1.57,0-3.16,.37-4.64,1.16-4.81,2.57-6.63,8.54-4.06,13.35,1.78,3.33,5.19,5.23,8.72,5.23,1.57,0,3.16-.37,4.64-1.16,4.81-2.57,6.63-8.54,4.06-13.35-1.78-3.33-5.19-5.23-8.72-5.23h0Z"/>
                        </g>
                        <g>
                            <path class="cls-7"
                                  d="M414.97,166.04c-2.92,0-5.58-1.6-6.95-4.17-2.04-3.83-.59-8.61,3.24-10.65,1.14-.61,2.42-.93,3.7-.93,2.92,0,5.58,1.6,6.95,4.17,.99,1.85,1.2,3.98,.59,6s-1.97,3.66-3.83,4.65c-1.14,.61-2.42,.93-3.7,.93Z"/>
                            <path class="cls-6"
                                  d="M414.96,152.3c2.18,0,4.16,1.19,5.19,3.11,1.52,2.86,.44,6.42-2.42,7.94-.86,.46-1.79,.69-2.75,.69-2.18,0-4.17-1.19-5.19-3.11-1.52-2.86-.44-6.42,2.42-7.94,.86-.46,1.79-.69,2.76-.69m0-4c-1.57,0-3.16,.37-4.64,1.16-4.81,2.57-6.63,8.54-4.06,13.35,1.78,3.33,5.19,5.23,8.72,5.23,1.57,0,3.16-.37,4.64-1.16,4.81-2.57,6.63-8.54,4.06-13.35-1.78-3.33-5.19-5.23-8.72-5.23h0Z"/>
                        </g>
                        <g>
                            <path class="cls-7"
                                  d="M456.38,143.95c-2.92,0-5.58-1.6-6.95-4.17-2.04-3.83-.59-8.61,3.24-10.65,1.14-.61,2.42-.93,3.7-.93,2.92,0,5.58,1.6,6.95,4.17,2.04,3.83,.59,8.61-3.24,10.65-1.14,.61-2.42,.93-3.7,.93Z"/>
                            <path class="cls-6"
                                  d="M456.36,130.21c2.18,0,4.16,1.19,5.19,3.11,1.52,2.86,.44,6.42-2.42,7.94-.86,.46-1.79,.69-2.75,.69-2.18,0-4.17-1.19-5.19-3.11-.74-1.38-.89-2.97-.44-4.47,.46-1.5,1.47-2.73,2.85-3.47,.86-.46,1.79-.69,2.76-.69m0-4c-1.57,0-3.16,.37-4.64,1.16-4.81,2.57-6.63,8.54-4.06,13.35,1.78,3.33,5.19,5.23,8.72,5.23,1.57,0,3.16-.37,4.64-1.16,4.81-2.57,6.63-8.54,4.06-13.35-1.78-3.33-5.19-5.23-8.72-5.23h0Z"/>
                        </g>
                        <g>
                            <path class="cls-7"
                                  d="M497.78,121.87c-2.92,0-5.58-1.6-6.95-4.17-2.04-3.83-.59-8.61,3.24-10.65,1.14-.61,2.42-.93,3.7-.93,2.92,0,5.58,1.6,6.95,4.17,.99,1.85,1.2,3.98,.59,6s-1.97,3.66-3.83,4.65c-1.14,.61-2.42,.93-3.7,.93Z"/>
                            <path class="cls-6"
                                  d="M497.77,108.12c2.18,0,4.16,1.19,5.19,3.11,1.52,2.86,.44,6.42-2.42,7.94-.86,.46-1.79,.69-2.75,.69-2.18,0-4.17-1.19-5.19-3.11-.74-1.38-.89-2.97-.44-4.47,.46-1.5,1.47-2.73,2.85-3.47,.86-.46,1.79-.69,2.76-.69m0-4c-1.57,0-3.16,.37-4.64,1.16-4.81,2.57-6.63,8.54-4.06,13.35,1.78,3.33,5.19,5.23,8.72,5.23,1.57,0,3.16-.37,4.64-1.16,4.81-2.57,6.63-8.54,4.06-13.35-1.78-3.33-5.19-5.23-8.72-5.23h0Z"/>
                        </g>
                        <g>
                            <path class="cls-7"
                                  d="M539.19,99.78c-2.92,0-5.58-1.6-6.95-4.17-.99-1.85-1.2-3.98-.59-6,.61-2.01,1.97-3.66,3.83-4.65,1.14-.61,2.42-.93,3.7-.93,2.92,0,5.58,1.6,6.95,4.17,2.04,3.83,.59,8.61-3.24,10.65-1.14,.61-2.42,.93-3.7,.93Z"/>
                            <path class="cls-6"
                                  d="M539.17,86.04c2.18,0,4.16,1.19,5.19,3.11,1.52,2.86,.44,6.42-2.42,7.94-.86,.46-1.79,.69-2.75,.69-2.18,0-4.17-1.19-5.19-3.11-.74-1.38-.89-2.97-.44-4.47s1.47-2.73,2.85-3.47c.86-.46,1.79-.69,2.76-.69m0-4c-1.57,0-3.16,.37-4.64,1.16-4.81,2.57-6.63,8.54-4.06,13.35,1.78,3.33,5.19,5.23,8.72,5.23,1.57,0,3.16-.37,4.64-1.16,4.81-2.57,6.63-8.54,4.06-13.35-1.78-3.33-5.19-5.23-8.72-5.23h0Z"/>
                        </g>
                        <g>
                            <path class="cls-7"
                                  d="M580.59,77.7c-2.92,0-5.58-1.6-6.95-4.17-2.04-3.83-.59-8.61,3.24-10.65,1.14-.61,2.42-.93,3.7-.93,2.92,0,5.58,1.6,6.95,4.17,.99,1.85,1.2,3.98,.59,6s-1.97,3.66-3.83,4.65c-1.14,.61-2.42,.93-3.7,.93Z"/>
                            <path class="cls-6"
                                  d="M580.57,63.95c2.18,0,4.16,1.19,5.19,3.11,1.52,2.86,.44,6.42-2.42,7.94-.86,.46-1.79,.69-2.75,.69-2.18,0-4.17-1.19-5.19-3.11-.74-1.38-.89-2.97-.44-4.47,.46-1.5,1.47-2.73,2.85-3.47,.86-.46,1.79-.69,2.76-.69m0-4c-1.57,0-3.16,.37-4.64,1.16-4.81,2.57-6.63,8.54-4.06,13.35,1.78,3.33,5.19,5.23,8.72,5.23,1.57,0,3.16-.37,4.64-1.16,4.81-2.57,6.63-8.54,4.06-13.35-1.78-3.33-5.19-5.23-8.72-5.23h0Z"/>
                        </g>
                        <g>
                            <path class="cls-7"
                                  d="M621.99,55.61c-2.92,0-5.58-1.6-6.95-4.17-.99-1.85-1.2-3.98-.59-6,.61-2.01,1.97-3.66,3.83-4.65,1.14-.61,2.42-.93,3.7-.93,2.92,0,5.58,1.6,6.95,4.17,2.04,3.83,.59,8.61-3.24,10.65-1.14,.61-2.42,.93-3.7,.93Z"/>
                            <path class="cls-6"
                                  d="M621.98,41.86c2.18,0,4.16,1.19,5.19,3.11,1.52,2.86,.44,6.42-2.42,7.94-.86,.46-1.79,.69-2.75,.69-2.18,0-4.17-1.19-5.19-3.11-.74-1.38-.89-2.97-.44-4.47s1.47-2.73,2.85-3.47c.86-.46,1.79-.69,2.76-.69m0-4c-1.57,0-3.16,.37-4.64,1.16-4.81,2.57-6.63,8.54-4.06,13.35,1.78,3.33,5.19,5.23,8.72,5.23,1.57,0,3.16-.37,4.64-1.16,4.81-2.57,6.63-8.54,4.06-13.35-1.78-3.33-5.19-5.23-8.72-5.23h0Z"/>
                        </g>
                        <g>
                            <path class="cls-7"
                                  d="M411.89,210.61c-3.1,0-5.94-1.7-7.39-4.43-1.05-1.97-1.27-4.24-.62-6.38,.65-2.14,2.1-3.9,4.07-4.95,1.21-.65,2.57-.99,3.93-.99,3.1,0,5.94,1.7,7.39,4.43,2.17,4.07,.63,9.15-3.45,11.32-1.21,.65-2.57,.99-3.93,.99Z"/>
                            <path class="cls-6"
                                  d="M411.87,195.37c2.55,0,4.87,1.39,6.07,3.64,1.78,3.34,.51,7.51-2.83,9.3-1.01,.54-2.09,.81-3.23,.81-2.55,0-4.87-1.39-6.07-3.64-.86-1.62-1.05-3.48-.51-5.23,.53-1.76,1.72-3.2,3.34-4.06,1.01-.54,2.09-.81,3.23-.81m0-3c-1.57,0-3.16,.37-4.64,1.16-4.81,2.57-6.63,8.54-4.06,13.35,1.78,3.33,5.19,5.23,8.72,5.23,1.57,0,3.16-.37,4.64-1.16,4.81-2.57,6.63-8.54,4.06-13.35-1.78-3.33-5.19-5.23-8.72-5.23h0Z"/>
                        </g>
                        <g>
                            <path class="cls-7"
                                  d="M453.29,188.52c-3.1,0-5.94-1.7-7.39-4.43-2.17-4.07-.63-9.15,3.45-11.32,1.21-.65,2.57-.99,3.93-.99,3.1,0,5.94,1.7,7.39,4.43,1.05,1.97,1.27,4.24,.62,6.38-.65,2.14-2.1,3.9-4.07,4.95-1.21,.65-2.57,.99-3.93,.99Z"/>
                            <path class="cls-6"
                                  d="M453.28,173.28c2.55,0,4.87,1.39,6.07,3.64,1.78,3.34,.51,7.51-2.83,9.3-1.01,.54-2.09,.81-3.23,.81-2.55,0-4.87-1.39-6.07-3.64-.86-1.62-1.05-3.48-.51-5.23,.53-1.76,1.72-3.2,3.34-4.06,1.01-.54,2.09-.81,3.23-.81m0-3c-1.57,0-3.16,.37-4.64,1.16-4.81,2.57-6.63,8.54-4.06,13.35,1.78,3.33,5.19,5.23,8.72,5.23,1.57,0,3.16-.37,4.64-1.16,4.81-2.57,6.63-8.54,4.06-13.35-1.78-3.33-5.19-5.23-8.72-5.23h0Z"/>
                        </g>
                        <g>
                            <path class="cls-7"
                                  d="M494.7,166.44c-3.1,0-5.94-1.7-7.39-4.43-1.05-1.97-1.27-4.24-.62-6.38,.65-2.14,2.1-3.9,4.07-4.95,1.21-.65,2.57-.99,3.93-.99,3.1,0,5.94,1.7,7.39,4.43,2.17,4.07,.63,9.15-3.45,11.32-1.21,.65-2.57,.99-3.93,.99Z"/>
                            <path class="cls-6"
                                  d="M494.68,151.19c2.55,0,4.87,1.39,6.07,3.64,1.78,3.34,.51,7.51-2.83,9.3-1.01,.54-2.09,.81-3.23,.81-2.55,0-4.87-1.39-6.07-3.64-.86-1.62-1.05-3.48-.51-5.23,.53-1.76,1.72-3.2,3.34-4.06,1.01-.54,2.09-.81,3.23-.81m0-3c-1.57,0-3.16,.37-4.64,1.16-4.81,2.57-6.63,8.54-4.06,13.35,1.78,3.33,5.19,5.23,8.72,5.23,1.57,0,3.16-.37,4.64-1.16,4.81-2.57,6.63-8.54,4.06-13.35-1.78-3.33-5.19-5.23-8.72-5.23h0Z"/>
                        </g>
                        <g>
                            <path class="cls-7"
                                  d="M536.1,144.35c-3.1,0-5.94-1.7-7.39-4.43-2.17-4.07-.63-9.15,3.45-11.32,1.21-.65,2.57-.99,3.93-.99,3.1,0,5.94,1.7,7.39,4.43,1.05,1.97,1.27,4.24,.62,6.38-.65,2.14-2.1,3.9-4.07,4.95-1.21,.65-2.57,.99-3.93,.99Z"/>
                            <path class="cls-6"
                                  d="M536.08,129.11c2.55,0,4.87,1.39,6.07,3.64,1.78,3.34,.51,7.51-2.83,9.3-1.01,.54-2.09,.81-3.23,.81-2.55,0-4.87-1.39-6.07-3.64-.86-1.62-1.05-3.48-.51-5.23s1.72-3.2,3.34-4.06c1.01-.54,2.09-.81,3.23-.81m0-3c-1.57,0-3.16,.37-4.64,1.16-4.81,2.57-6.63,8.54-4.06,13.35,1.78,3.33,5.19,5.23,8.72,5.23,1.57,0,3.16-.37,4.64-1.16,4.81-2.57,6.63-8.54,4.06-13.35-1.78-3.33-5.19-5.23-8.72-5.23h0Z"/>
                        </g>
                        <g>
                            <path class="cls-7"
                                  d="M577.51,122.26c-3.1,0-5.94-1.7-7.39-4.43-1.05-1.97-1.27-4.24-.62-6.38s2.1-3.9,4.07-4.95c1.21-.65,2.57-.99,3.93-.99,3.1,0,5.94,1.7,7.39,4.43,1.05,1.97,1.27,4.24,.62,6.38-.65,2.14-2.1,3.9-4.07,4.95-1.21,.65-2.57,.99-3.93,.99Z"/>
                            <path class="cls-6"
                                  d="M577.49,107.02c2.55,0,4.87,1.39,6.07,3.64,1.78,3.34,.51,7.51-2.83,9.3-1.01,.54-2.09,.81-3.23,.81-2.55,0-4.87-1.39-6.07-3.64-.86-1.62-1.05-3.48-.51-5.23,.53-1.76,1.72-3.2,3.34-4.06,1.01-.54,2.09-.81,3.23-.81m0-3c-1.57,0-3.16,.37-4.64,1.16-4.81,2.57-6.63,8.54-4.06,13.35,1.78,3.33,5.19,5.23,8.72,5.23,1.57,0,3.16-.37,4.64-1.16,4.81-2.57,6.63-8.54,4.06-13.35-1.78-3.33-5.19-5.23-8.72-5.23h0Z"/>
                        </g>
                        <g>
                            <path class="cls-7"
                                  d="M618.91,100.18c-3.1,0-5.94-1.7-7.39-4.43-2.17-4.07-.63-9.15,3.45-11.33,1.21-.65,2.57-.99,3.93-.99,3.1,0,5.94,1.7,7.39,4.43,1.05,1.97,1.27,4.24,.62,6.38-.65,2.14-2.1,3.9-4.07,4.95-1.21,.65-2.57,.99-3.93,.99Z"/>
                            <path class="cls-6"
                                  d="M618.89,84.93c2.55,0,4.87,1.39,6.07,3.64,1.78,3.34,.51,7.51-2.83,9.3-1.01,.54-2.09,.81-3.23,.81-2.55,0-4.87-1.39-6.07-3.64-.86-1.62-1.05-3.48-.51-5.23,.53-1.76,1.72-3.2,3.34-4.06,1.01-.54,2.09-.81,3.23-.81m0-3c-1.57,0-3.16,.37-4.64,1.16-4.81,2.57-6.63,8.54-4.06,13.35,1.78,3.33,5.19,5.23,8.72,5.23,1.57,0,3.16-.37,4.64-1.16,4.81-2.57,6.63-8.54,4.06-13.35-1.78-3.33-5.19-5.23-8.72-5.23h0Z"/>
                        </g>
                        <g>
                            <path class="cls-7"
                                  d="M408.22,254.09c-3.29,0-6.29-1.8-7.83-4.7-2.3-4.32-.66-9.7,3.65-12,1.28-.68,2.72-1.04,4.17-1.04,3.29,0,6.29,1.8,7.84,4.7,2.3,4.32,.66,9.7-3.65,12-1.28,.68-2.72,1.05-4.17,1.05Z"/>
                            <path class="cls-6"
                                  d="M408.21,237.35h0c2.92,0,5.58,1.6,6.95,4.17,.99,1.85,1.2,3.98,.59,6-.61,2.01-1.97,3.66-3.83,4.65-1.14,.61-2.42,.93-3.7,.93-2.92,0-5.58-1.6-6.95-4.17-.99-1.85-1.2-3.98-.59-6,.61-2.01,1.97-3.66,3.83-4.65,1.14-.61,2.42-.93,3.7-.93m0-2c-1.57,0-3.16,.37-4.64,1.16-4.81,2.57-6.63,8.54-4.06,13.35,1.78,3.33,5.19,5.23,8.72,5.23,1.57,0,3.16-.37,4.64-1.16,4.81-2.57,6.63-8.54,4.06-13.35-1.78-3.33-5.19-5.23-8.72-5.23h0Z"/>
                        </g>
                        <g>
                            <path class="cls-7"
                                  d="M449.63,232c-3.29,0-6.29-1.8-7.84-4.7-2.3-4.32-.66-9.7,3.65-12,1.28-.68,2.72-1.05,4.17-1.05,3.29,0,6.29,1.8,7.83,4.7,1.12,2.09,1.35,4.49,.66,6.76s-2.22,4.13-4.31,5.24c-1.28,.68-2.72,1.05-4.17,1.05Z"/>
                            <path class="cls-6"
                                  d="M449.61,215.26h0c2.92,0,5.58,1.6,6.95,4.17,.99,1.85,1.2,3.98,.59,6-.61,2.01-1.97,3.66-3.83,4.65-1.14,.61-2.42,.93-3.7,.93-2.92,0-5.58-1.6-6.95-4.17-2.04-3.83-.59-8.61,3.24-10.65,1.14-.61,2.42-.93,3.7-.93m0-2c-1.57,0-3.16,.37-4.64,1.16-4.81,2.57-6.63,8.54-4.06,13.35,1.78,3.33,5.19,5.23,8.72,5.23,1.57,0,3.16-.37,4.64-1.16,4.81-2.57,6.63-8.54,4.06-13.35-1.78-3.33-5.19-5.23-8.72-5.23h0Z"/>
                        </g>
                        <g>
                            <path class="cls-7"
                                  d="M491.03,209.92c-3.29,0-6.29-1.8-7.83-4.7-2.3-4.32-.66-9.7,3.65-12,1.28-.68,2.72-1.05,4.17-1.05,3.29,0,6.29,1.8,7.84,4.7,2.3,4.32,.66,9.7-3.65,12-1.28,.68-2.72,1.05-4.17,1.05Z"/>
                            <path class="cls-6"
                                  d="M491.02,193.17h0c2.92,0,5.58,1.6,6.95,4.17,.99,1.85,1.2,3.98,.59,6s-1.97,3.66-3.83,4.65c-1.14,.61-2.42,.93-3.7,.93-2.92,0-5.58-1.6-6.95-4.17-2.04-3.83-.59-8.61,3.24-10.65,1.14-.61,2.42-.93,3.7-.93m0-2c-1.57,0-3.16,.37-4.64,1.16-4.81,2.57-6.63,8.54-4.06,13.35,1.78,3.33,5.19,5.23,8.72,5.23,1.57,0,3.16-.37,4.64-1.16,4.81-2.57,6.63-8.54,4.06-13.35-1.78-3.33-5.19-5.23-8.72-5.23h0Z"/>
                        </g>
                        <g>
                            <path class="cls-7"
                                  d="M532.44,187.83c-3.29,0-6.29-1.8-7.84-4.7-2.3-4.32-.66-9.7,3.65-12,1.28-.68,2.72-1.05,4.17-1.05,3.29,0,6.29,1.8,7.83,4.7,1.12,2.09,1.35,4.49,.66,6.76s-2.22,4.13-4.31,5.24c-1.28,.68-2.72,1.05-4.17,1.05Z"/>
                            <path class="cls-6"
                                  d="M532.42,171.09h0c2.92,0,5.58,1.6,6.95,4.17,.99,1.85,1.2,3.98,.59,6s-1.97,3.66-3.83,4.65c-1.14,.61-2.42,.93-3.7,.93-2.92,0-5.58-1.6-6.95-4.17-2.04-3.83-.59-8.61,3.24-10.65,1.14-.61,2.42-.93,3.7-.93m0-2c-1.57,0-3.16,.37-4.64,1.16-4.81,2.57-6.63,8.54-4.06,13.35,1.78,3.33,5.19,5.23,8.72,5.23,1.57,0,3.16-.37,4.64-1.16,4.81-2.57,6.63-8.54,4.06-13.35-1.78-3.33-5.19-5.23-8.72-5.23h0Z"/>
                        </g>
                        <g>
                            <path class="cls-7"
                                  d="M573.84,165.75c-3.29,0-6.29-1.8-7.83-4.7-1.12-2.09-1.35-4.49-.66-6.76,.69-2.27,2.22-4.13,4.31-5.24,1.28-.68,2.72-1.05,4.17-1.05,3.29,0,6.29,1.8,7.84,4.7,2.3,4.32,.66,9.7-3.65,12-1.28,.68-2.72,1.05-4.17,1.05Z"/>
                            <path class="cls-6"
                                  d="M573.82,149h0c2.92,0,5.58,1.6,6.95,4.17,.99,1.85,1.2,3.98,.59,6s-1.97,3.66-3.83,4.65c-1.14,.61-2.42,.93-3.7,.93-2.92,0-5.58-1.6-6.95-4.17-2.04-3.83-.59-8.61,3.24-10.65,1.14-.61,2.42-.93,3.7-.93m0-2c-1.57,0-3.16,.37-4.64,1.16-4.81,2.57-6.63,8.54-4.06,13.35,1.78,3.33,5.19,5.23,8.72,5.23,1.57,0,3.16-.37,4.64-1.16,4.81-2.57,6.63-8.54,4.06-13.35-1.78-3.33-5.19-5.23-8.72-5.23h0Z"/>
                        </g>
                        <g>
                            <path class="cls-7"
                                  d="M615.24,143.66c-3.29,0-6.29-1.8-7.84-4.7-2.3-4.32-.66-9.7,3.65-12,1.28-.68,2.72-1.05,4.17-1.05,3.29,0,6.29,1.8,7.83,4.7,1.12,2.09,1.35,4.49,.66,6.76s-2.22,4.13-4.31,5.24c-1.28,.68-2.72,1.05-4.17,1.05Z"/>
                            <path class="cls-6"
                                  d="M615.23,126.91h0c2.92,0,5.58,1.6,6.95,4.17,.99,1.85,1.2,3.98,.59,6s-1.97,3.66-3.83,4.65c-1.14,.61-2.42,.93-3.7,.93-2.92,0-5.58-1.6-6.95-4.17-2.04-3.83-.59-8.61,3.24-10.65,1.14-.61,2.42-.93,3.7-.93m0-2c-1.57,0-3.16,.37-4.64,1.16-4.81,2.57-6.63,8.54-4.06,13.35,1.78,3.33,5.19,5.23,8.72,5.23,1.57,0,3.16-.37,4.64-1.16,4.81-2.57,6.63-8.54,4.06-13.35-1.78-3.33-5.19-5.23-8.72-5.23h0Z"/>
                        </g>
                        <g>
                            <path class="cls-7"
                                  d="M446.54,276.57c-3.47,0-6.64-1.9-8.28-4.96-1.18-2.21-1.43-4.74-.7-7.14s2.35-4.36,4.55-5.54c1.35-.72,2.88-1.1,4.4-1.1,3.47,0,6.64,1.9,8.28,4.96,2.43,4.56,.7,10.25-3.86,12.68-1.35,.72-2.88,1.11-4.4,1.11Z"/>
                            <path class="cls-6"
                                  d="M446.53,258.33h0c3.29,0,6.29,1.8,7.83,4.7,2.3,4.32,.66,9.7-3.65,12-1.28,.68-2.72,1.05-4.17,1.05-3.29,0-6.29-1.8-7.84-4.7-1.12-2.09-1.35-4.49-.66-6.76,.69-2.27,2.22-4.13,4.31-5.24,1.28-.68,2.72-1.05,4.17-1.05m0-1c-1.57,0-3.16,.37-4.64,1.16-4.81,2.57-6.63,8.54-4.06,13.35,1.78,3.33,5.19,5.23,8.72,5.23,1.57,0,3.16-.37,4.64-1.16,4.81-2.57,6.63-8.54,4.06-13.35-1.78-3.33-5.19-5.23-8.72-5.23h0Z"/>
                        </g>
                        <g>
                            <path class="cls-7"
                                  d="M487.95,254.49c-3.47,0-6.64-1.9-8.28-4.96-2.43-4.56-.7-10.25,3.86-12.68,1.35-.72,2.88-1.11,4.4-1.11,3.47,0,6.64,1.9,8.28,4.96,2.43,4.56,.7,10.25-3.86,12.68-1.35,.72-2.88,1.1-4.4,1.1Z"/>
                            <path class="cls-6"
                                  d="M487.93,236.24h0c3.29,0,6.29,1.8,7.83,4.7,2.3,4.32,.66,9.7-3.65,12-1.28,.68-2.72,1.05-4.17,1.05-3.29,0-6.29-1.8-7.84-4.7-1.12-2.09-1.35-4.49-.66-6.76,.69-2.27,2.22-4.13,4.31-5.24,1.28-.68,2.72-1.05,4.17-1.05m0-1c-1.57,0-3.16,.37-4.64,1.16-4.81,2.57-6.63,8.54-4.06,13.35,1.78,3.33,5.19,5.23,8.72,5.23,1.57,0,3.16-.37,4.64-1.16,4.81-2.57,6.63-8.54,4.06-13.35-1.78-3.33-5.19-5.23-8.72-5.23h0Z"/>
                        </g>
                        <g>
                            <path class="cls-7"
                                  d="M529.35,232.4c-3.47,0-6.64-1.9-8.28-4.96-1.18-2.21-1.43-4.74-.7-7.14s2.35-4.36,4.55-5.54c1.36-.72,2.88-1.1,4.4-1.1,3.47,0,6.64,1.9,8.28,4.96,2.43,4.56,.7,10.25-3.86,12.68-1.35,.72-2.88,1.1-4.4,1.1Z"/>
                            <path class="cls-6"
                                  d="M529.34,214.16h0c3.29,0,6.29,1.8,7.83,4.7,2.3,4.32,.66,9.7-3.65,12-1.28,.68-2.72,1.05-4.17,1.05-3.29,0-6.29-1.8-7.84-4.7-1.12-2.09-1.35-4.49-.66-6.76,.69-2.27,2.22-4.13,4.31-5.24,1.28-.68,2.72-1.05,4.17-1.05m0-1c-1.57,0-3.16,.37-4.64,1.16-4.81,2.57-6.63,8.54-4.06,13.35,1.78,3.33,5.19,5.23,8.72,5.23,1.57,0,3.16-.37,4.64-1.16,4.81-2.57,6.63-8.54,4.06-13.35-1.78-3.33-5.19-5.23-8.72-5.23h0Z"/>
                        </g>
                        <g>
                            <path class="cls-7"
                                  d="M570.76,210.31c-3.47,0-6.64-1.9-8.28-4.96-2.43-4.56-.7-10.25,3.86-12.68,1.35-.72,2.88-1.1,4.4-1.1,3.47,0,6.64,1.9,8.28,4.96,1.18,2.21,1.43,4.74,.7,7.14-.73,2.4-2.35,4.36-4.55,5.54-1.35,.72-2.88,1.1-4.4,1.1Z"/>
                            <path class="cls-6"
                                  d="M570.74,192.07h0c3.29,0,6.29,1.8,7.83,4.7,2.3,4.32,.66,9.7-3.65,12-1.28,.68-2.72,1.05-4.17,1.05-3.29,0-6.29-1.8-7.84-4.7-1.12-2.09-1.35-4.49-.66-6.76s2.22-4.13,4.31-5.24c1.28-.68,2.72-1.05,4.17-1.05m0-1c-1.57,0-3.16,.37-4.64,1.16-4.81,2.57-6.63,8.54-4.06,13.35,1.78,3.33,5.19,5.23,8.72,5.23,1.57,0,3.16-.37,4.64-1.16,4.81-2.57,6.63-8.54,4.06-13.35-1.78-3.33-5.19-5.23-8.72-5.23h0Z"/>
                        </g>
                        <g>
                            <path class="cls-7"
                                  d="M612.16,188.23c-3.47,0-6.64-1.9-8.28-4.96-1.18-2.21-1.43-4.74-.7-7.14s2.35-4.36,4.55-5.54c1.36-.72,2.88-1.1,4.4-1.1,3.47,0,6.64,1.9,8.28,4.96,2.43,4.56,.7,10.25-3.86,12.68-1.35,.72-2.88,1.1-4.4,1.1Z"/>
                            <path class="cls-6"
                                  d="M612.14,169.98h0c3.29,0,6.29,1.8,7.83,4.7,2.3,4.32,.66,9.7-3.65,12-1.28,.68-2.72,1.05-4.17,1.05-3.29,0-6.29-1.8-7.84-4.7-1.12-2.09-1.35-4.49-.66-6.76s2.22-4.13,4.31-5.24c1.28-.68,2.72-1.05,4.17-1.05m0-1c-1.57,0-3.16,.37-4.64,1.16-4.81,2.57-6.63,8.54-4.06,13.35,1.78,3.33,5.19,5.23,8.72,5.23,1.57,0,3.16-.37,4.64-1.16,4.81-2.57,6.63-8.54,4.06-13.35-1.78-3.33-5.19-5.23-8.72-5.23h0Z"/>
                        </g>
                        <circle class="cls-7" cx="442.87" cy="310.18" r="9.87"/>
                        <circle class="cls-7" cx="484.27" cy="288.1" r="9.87"/>
                        <circle class="cls-7" cx="525.68" cy="266.01" r="9.87"/>
                        <circle class="cls-7" cx="567.08" cy="243.92" r="9.87"/>
                        <circle class="cls-7" cx="608.49" cy="221.84" r="9.87"/>
                        <circle class="cls-7" cx="649.89" cy="199.75" r="9.87"/>
                        <circle class="cls-7" cx="481.19" cy="332.17" r="9.87"/>
                        <circle class="cls-7" cx="522.59" cy="310.08" r="9.87"/>
                        <circle class="cls-7" cx="564" cy="287.99" r="9.87"/>
                        <circle class="cls-7" cx="605.4" cy="265.91" r="9.87"/>
                        <circle class="cls-7" cx="646.81" cy="243.82" r="9.87"/>
                        <circle class="cls-7" cx="477.52" cy="375.15" r="9.87"/>
                        <circle class="cls-7" cx="518.93" cy="353.06" r="9.87"/>
                        <circle class="cls-7" cx="560.33" cy="330.97" r="9.87"/>
                        <circle class="cls-7" cx="601.74" cy="308.89" r="9.87"/>
                        <circle class="cls-7" cx="643.14" cy="286.8" r="9.87"/>
                    </g>
                </g>
            </g>
            <g>
                <g>
                    <path class="cls-1"
                          d="M182.67,164.6c-2.5,5.52-5.39,7.94-9.32,7.94-5.78,0-9.84-5.52-9.84-13.42,0-5.05,1.73-9.62,4.96-13.16,3.8-4.14,9.28-6.34,15.62-6.34,5.78,0,10.87,1.94,14.07,5.31,2.76,2.93,4.23,7.12,4.23,12,0,5.61-2.11,10.7-5.74,13.94-2.93,2.63-6.34,4.01-12.38,4.96-1.04-3.11-1.86-4.66-3.67-7.08,4.06-.3,6.73-.99,9.06-2.2,3.32-1.77,5.18-5.39,5.18-10.01,0-3.67-1.29-6.6-3.8-8.5-1.12-.86-2.07-1.25-3.62-1.51-.95,7.42-2.42,12.99-4.75,18.08Zm-7.42-15.79c-2.85,2.42-4.7,6.43-4.7,10.27,0,3.06,1.17,5.48,2.68,5.48,1.08,0,2.2-1.51,3.5-4.79,1.51-3.88,2.76-8.89,3.24-13.16-1.81,.26-3.19,.91-4.7,2.2Z"/>
                    <path class="cls-1"
                          d="M224.13,158.91c-2.55,1.94-3.88,3.75-3.88,5.31,0,2.24,2.81,3.24,9.36,3.24,5.09,0,11.26-.86,14.11-1.99l.52,8.29q-1.17,.04-4.27,.43c-3.62,.47-7.21,.69-10.74,.69-4.88,0-8.33-.47-10.96-1.55-3.84-1.55-5.78-4.19-5.78-7.81,0-3.84,1.9-6.99,6.17-10.4l5.48,3.8Zm-8.8-19.59c2.81,.73,8.07,1.17,14.28,1.17,5.61,0,9.75-.26,12-.78l.17,6.6c-2.68,1.29-8.11,4.75-12,7.64l-5.31-3.67c1.25-.86,1.34-.91,3.41-2.16,.56-.35,.6-.39,1.04-.6,.3-.17,.35-.17,.69-.39-1.42,.13-2.07,.17-3.54,.17-3.28,0-5.44-.13-9.71-.52-.78-.09-.91-.09-1.51-.13l.47-7.34Z"/>
                    <path class="cls-1"
                          d="M268.09,137.85c-.6,1.81-1.12,4.62-1.77,9.23,2.8-5.05,6.3-7.47,10.92-7.47,2.93,0,5.83,1.47,7.81,3.93,2.42,3.02,3.58,6.95,3.58,12,0,7.08-2.2,12.34-6.6,15.79-2.46,1.94-5.91,3.54-9.84,4.49-1.47,.39-2.59,.6-5.09,.99-1.04-3.24-1.6-4.44-3.45-7.38,12.38-.73,17.39-4.79,17.39-14.11,0-5.39-1.73-8.37-4.79-8.37-1.6,0-3.06,.78-4.66,2.5-2.59,2.72-4.27,6.3-4.79,10.01-.13,.99-.17,1.51-.17,3.54l-7.25,.09c.04-.3,.04-.56,.04-.73v-.86c-.09-1.68-.13-4.27-.13-5.48,0-5.22,.3-10.18,.99-15.75,.13-1.25,.17-1.73,.17-2.37v-.35l7.64,.3Z"/>
                </g>
                <g>
                    <path class="cls-5"
                          d="M182.67,163.39c-2.5,5.52-5.39,7.94-9.32,7.94-5.78,0-9.84-5.52-9.84-13.42,0-5.05,1.73-9.62,4.96-13.16,3.8-4.14,9.28-6.34,15.62-6.34,5.78,0,10.87,1.94,14.07,5.31,2.76,2.93,4.23,7.12,4.23,12,0,5.61-2.11,10.7-5.74,13.94-2.93,2.63-6.34,4.01-12.38,4.96-1.04-3.11-1.86-4.66-3.67-7.08,4.06-.3,6.73-.99,9.06-2.2,3.32-1.77,5.18-5.39,5.18-10.01,0-3.67-1.29-6.6-3.8-8.5-1.12-.86-2.07-1.25-3.62-1.51-.95,7.42-2.42,12.99-4.75,18.08Zm-7.42-15.79c-2.85,2.42-4.7,6.43-4.7,10.27,0,3.06,1.17,5.48,2.68,5.48,1.08,0,2.2-1.51,3.5-4.79,1.51-3.88,2.76-8.89,3.24-13.16-1.81,.26-3.19,.91-4.7,2.2Z"/>
                    <path class="cls-5"
                          d="M224.13,157.7c-2.55,1.94-3.88,3.75-3.88,5.31,0,2.24,2.81,3.24,9.36,3.24,5.09,0,11.26-.86,14.11-1.98l.52,8.29q-1.17,.04-4.27,.43c-3.62,.47-7.21,.69-10.74,.69-4.88,0-8.33-.47-10.96-1.55-3.84-1.55-5.78-4.19-5.78-7.81,0-3.84,1.9-6.99,6.17-10.4l5.48,3.8Zm-8.8-19.59c2.81,.73,8.07,1.17,14.28,1.17,5.61,0,9.75-.26,12-.78l.17,6.6c-2.68,1.29-8.11,4.75-12,7.64l-5.31-3.67c1.25-.86,1.34-.91,3.41-2.16,.56-.35,.6-.39,1.04-.6,.3-.17,.35-.17,.69-.39-1.42,.13-2.07,.17-3.54,.17-3.28,0-5.44-.13-9.71-.52-.78-.09-.91-.09-1.51-.13l.47-7.34Z"/>
                    <path class="cls-5"
                          d="M268.09,136.64c-.6,1.81-1.12,4.62-1.77,9.23,2.8-5.05,6.3-7.47,10.92-7.47,2.93,0,5.83,1.47,7.81,3.93,2.42,3.02,3.58,6.95,3.58,12,0,7.08-2.2,12.34-6.6,15.79-2.46,1.94-5.91,3.54-9.84,4.49-1.47,.39-2.59,.6-5.09,.99-1.04-3.24-1.6-4.44-3.45-7.38,12.38-.73,17.39-4.79,17.39-14.11,0-5.39-1.73-8.37-4.79-8.37-1.6,0-3.06,.78-4.66,2.5-2.59,2.72-4.27,6.3-4.79,10.01-.13,.99-.17,1.51-.17,3.54l-7.25,.09c.04-.3,.04-.56,.04-.73v-.86c-.09-1.68-.13-4.27-.13-5.48,0-5.22,.3-10.18,.99-15.75,.13-1.25,.17-1.73,.17-2.37v-.35l7.64,.3Z"/>
                </g>
            </g>
        </g>
    </g>
</svg>