<?xml version="1.0" encoding="UTF-8"?>
<svg id="_イヤー_2" xmlns="http://www.w3.org/2000/svg" viewBox="0 0 264.45 124.95">
    <defs>
        <style>
            .cls-1{stroke:#231815;stroke-linecap:round;stroke-linejoin:round;stroke-width:6.24px;}.cls-1,.cls-2{fill:#231815;}.cls-3{fill:#fff;}.cls-4{fill:#ffe200;}.cls-2{stroke:#040000;stroke-miterlimit:10;stroke-width:1.56px;}
        </style>
    </defs>
    <g id="_イヤー_1-2">
        <g>
            <g>
                <path class="cls-2"
                      d="M235.74,124.16l-190.29-5.52-7.45-18.83L1.5,121.94s15.22-41.46,23-52.8l-10.59-22.34L39.51,.79l191.9,3.61,32.15,81.83-27.82,37.93Z"/>
                <polygon class="cls-3"
                         points="225.83 114.78 48 111.97 21.51 41.61 46.87 8.73 225.85 8.73 258.09 88.81 225.83 114.78"/>
                <path class="cls-3" d="M34.46,65.72c-4.34,.75-27.41,49.06-27.41,49.06l41.84-24.53-14.43-24.53Z"/>
            </g>
            <g>
                <g>
                    <path class="cls-1"
                          d="M61.35,36.09c-1.53,3.37-3.29,4.84-5.68,4.84-3.53,0-6-3.37-6-8.18,0-3.08,1.05-5.87,3.03-8.02,2.31-2.53,5.66-3.87,9.52-3.87,3.53,0,6.63,1.18,8.58,3.24,1.68,1.79,2.58,4.34,2.58,7.31,0,3.42-1.29,6.52-3.5,8.5-1.79,1.61-3.87,2.45-7.55,3.03-.63-1.89-1.13-2.84-2.24-4.31,2.47-.18,4.1-.6,5.52-1.34,2.03-1.08,3.16-3.29,3.16-6.1,0-2.24-.79-4.02-2.32-5.18-.68-.53-1.26-.76-2.21-.92-.58,4.52-1.47,7.92-2.89,11.02Zm-4.52-9.63c-1.74,1.47-2.87,3.92-2.87,6.26,0,1.87,.71,3.34,1.63,3.34,.66,0,1.34-.92,2.13-2.92,.92-2.37,1.68-5.42,1.97-8.02-1.1,.16-1.95,.55-2.87,1.34Z"/>
                    <path class="cls-1"
                          d="M86.63,32.62c-1.55,1.18-2.37,2.29-2.37,3.24,0,1.37,1.71,1.97,5.71,1.97,3.1,0,6.87-.53,8.6-1.21l.32,5.05q-.71,.03-2.6,.26c-2.21,.29-4.39,.42-6.55,.42-2.97,0-5.08-.29-6.68-.95-2.34-.95-3.52-2.55-3.52-4.76,0-2.34,1.16-4.26,3.76-6.34l3.34,2.32Zm-5.37-11.94c1.71,.45,4.92,.71,8.71,.71,3.42,0,5.95-.16,7.31-.47l.11,4.02c-1.63,.79-4.95,2.89-7.31,4.66l-3.24-2.24c.76-.53,.82-.55,2.08-1.32,.34-.21,.37-.24,.63-.37,.18-.1,.21-.1,.42-.24-.87,.08-1.26,.11-2.16,.11-2,0-3.31-.08-5.92-.32-.47-.05-.55-.05-.92-.08l.29-4.47Z"/>
                    <path class="cls-1"
                          d="M113.44,19.78c-.37,1.11-.68,2.82-1.08,5.63,1.71-3.08,3.84-4.55,6.66-4.55,1.79,0,3.55,.89,4.76,2.39,1.47,1.84,2.18,4.24,2.18,7.31,0,4.31-1.34,7.52-4.03,9.63-1.5,1.18-3.6,2.16-6,2.74-.89,.24-1.58,.37-3.1,.61-.63-1.97-.97-2.71-2.1-4.5,7.55-.45,10.6-2.92,10.6-8.6,0-3.29-1.05-5.1-2.92-5.1-.97,0-1.87,.47-2.84,1.53-1.58,1.66-2.6,3.84-2.92,6.1-.08,.6-.1,.92-.1,2.16l-4.42,.05c.03-.18,.03-.34,.03-.45v-.53c-.05-1.03-.08-2.6-.08-3.34,0-3.18,.18-6.21,.61-9.6,.08-.76,.11-1.05,.11-1.45v-.21l4.66,.18Z"/>
                </g>
                <g>
                    <path class="cls-4"
                          d="M61.35,35.36c-1.53,3.37-3.29,4.84-5.68,4.84-3.53,0-6-3.37-6-8.18,0-3.08,1.05-5.87,3.03-8.02,2.31-2.53,5.66-3.87,9.52-3.87,3.53,0,6.63,1.18,8.58,3.24,1.68,1.79,2.58,4.34,2.58,7.31,0,3.42-1.29,6.52-3.5,8.5-1.79,1.61-3.87,2.45-7.55,3.03-.63-1.89-1.13-2.84-2.24-4.31,2.47-.18,4.1-.61,5.52-1.34,2.03-1.08,3.16-3.29,3.16-6.1,0-2.24-.79-4.02-2.32-5.18-.68-.53-1.26-.76-2.21-.92-.58,4.52-1.47,7.92-2.89,11.02Zm-4.52-9.63c-1.74,1.47-2.87,3.92-2.87,6.26,0,1.87,.71,3.34,1.63,3.34,.66,0,1.34-.92,2.13-2.92,.92-2.37,1.68-5.42,1.97-8.02-1.1,.16-1.95,.55-2.87,1.34Z"/>
                    <path class="cls-4"
                          d="M86.63,31.88c-1.55,1.18-2.37,2.29-2.37,3.24,0,1.37,1.71,1.97,5.71,1.97,3.1,0,6.87-.53,8.6-1.21l.32,5.05q-.71,.03-2.6,.26c-2.21,.29-4.39,.42-6.55,.42-2.97,0-5.08-.29-6.68-.95-2.34-.95-3.52-2.55-3.52-4.76,0-2.34,1.16-4.26,3.76-6.34l3.34,2.32Zm-5.37-11.94c1.71,.45,4.92,.71,8.71,.71,3.42,0,5.95-.16,7.31-.47l.11,4.02c-1.63,.79-4.95,2.89-7.31,4.66l-3.24-2.24c.76-.53,.82-.55,2.08-1.32,.34-.21,.37-.24,.63-.37,.18-.11,.21-.11,.42-.24-.87,.08-1.26,.11-2.16,.11-2,0-3.31-.08-5.92-.32-.47-.05-.55-.05-.92-.08l.29-4.47Z"/>
                    <path class="cls-4"
                          d="M113.44,19.05c-.37,1.11-.68,2.82-1.08,5.63,1.71-3.08,3.84-4.55,6.66-4.55,1.79,0,3.55,.89,4.76,2.39,1.47,1.84,2.18,4.24,2.18,7.31,0,4.31-1.34,7.52-4.03,9.63-1.5,1.18-3.6,2.16-6,2.74-.89,.24-1.58,.37-3.1,.61-.63-1.97-.97-2.71-2.1-4.5,7.55-.45,10.6-2.92,10.6-8.6,0-3.29-1.05-5.1-2.92-5.1-.97,0-1.87,.47-2.84,1.53-1.58,1.66-2.6,3.84-2.92,6.1-.08,.61-.1,.92-.1,2.16l-4.42,.05c.03-.18,.03-.34,.03-.45v-.53c-.05-1.03-.08-2.6-.08-3.34,0-3.18,.18-6.21,.61-9.6,.08-.76,.11-1.05,.11-1.45v-.21l4.66,.18Z"/>
                </g>
            </g>
        </g>
    </g>
</svg>